<svg xmlns="http://www.w3.org/2000/svg" width="192" viewBox="0 0 192 192" height="192" version="1.0"><defs><clipPath id="a"><path d="M 19.199219 32.253906 L 172.949219 32.253906 L 172.949219 159.753906 L 19.199219 159.753906 Z M 19.199219 32.253906"/></clipPath><clipPath id="b"><path d="M 19.199219 32.253906 L 172.949219 32.253906 L 172.949219 61 L 19.199219 61 Z M 19.199219 32.253906"/></clipPath></defs><g clip-path="url(#a)"><path fill="#ECF0F3" d="M 154.917969 159.71875 L 37.230469 159.71875 C 27.316406 159.71875 19.199219 151.609375 19.199219 141.703125 L 19.199219 50.320312 C 19.199219 40.414062 27.316406 32.304688 37.230469 32.304688 L 154.914062 32.304688 C 164.835938 32.304688 172.949219 40.414062 172.949219 50.320312 L 172.949219 141.703125 C 172.949219 151.609375 164.835938 159.71875 154.917969 159.71875"/></g><g clip-path="url(#b)"><path fill="#100F0D" d="M 172.949219 60.660156 L 172.949219 50.320312 C 172.949219 40.410156 164.835938 32.304688 154.917969 32.304688 L 37.230469 32.304688 C 27.316406 32.304688 19.199219 40.414062 19.199219 50.320312 L 19.199219 60.660156 L 172.949219 60.660156"/></g><path fill="#ECF0F3" d="M 36.738281 42.453125 C 38.964844 42.453125 40.769531 44.257812 40.769531 46.480469 C 40.769531 48.707031 38.964844 50.507812 36.738281 50.507812 C 34.511719 50.507812 32.707031 48.707031 32.707031 46.480469 C 32.707031 44.257812 34.511719 42.453125 36.738281 42.453125"/><path fill="#F68D11" d="M 48.21875 42.453125 C 50.445312 42.453125 52.25 44.257812 52.25 46.480469 C 52.25 48.707031 50.445312 50.507812 48.21875 50.507812 C 45.992188 50.507812 44.1875 48.707031 44.1875 46.480469 C 44.1875 44.257812 45.992188 42.453125 48.21875 42.453125"/><path fill="#62CBD8" d="M 59.710938 42.453125 C 61.9375 42.453125 63.742188 44.257812 63.742188 46.480469 C 63.742188 48.707031 61.9375 50.507812 59.710938 50.507812 C 57.484375 50.507812 55.679688 48.707031 55.679688 46.480469 C 55.679688 44.257812 57.484375 42.453125 59.710938 42.453125"/><path fill="#FFF" d="M 148.144531 45.355469 L 157.273438 45.355469 L 157.273438 47.402344 L 148.144531 47.402344 L 148.144531 45.355469"/><path fill="#FFF" d="M 154.59375 52.53125 L 153.046875 51.1875 L 157.148438 46.480469 L 153.046875 41.777344 L 154.59375 40.4375 L 159.871094 46.480469 L 154.59375 52.53125"/><path fill="#FFF" d="M 133.089844 52.894531 L 81.761719 52.894531 C 78.234375 52.894531 75.34375 50.007812 75.34375 46.480469 C 75.34375 42.957031 78.234375 40.070312 81.761719 40.070312 L 133.089844 40.070312 C 136.621094 40.070312 139.507812 42.957031 139.507812 46.480469 C 139.507812 50.007812 136.621094 52.894531 133.089844 52.894531"/><path fill="#100F0D" d="M 83.0625 49.550781 L 81.648438 43.777344 L 82.773438 43.777344 L 83.320312 46.398438 C 83.464844 47.101562 83.601562 47.839844 83.699219 48.410156 L 83.714844 48.410156 C 83.8125 47.800781 83.972656 47.117188 84.132812 46.390625 L 84.761719 43.777344 L 85.863281 43.777344 L 86.441406 46.433594 C 86.585938 47.117188 86.707031 47.761719 86.789062 48.386719 L 86.808594 48.386719 C 86.910156 47.75 87.050781 47.09375 87.199219 46.390625 L 87.800781 43.777344 L 88.875 43.777344 L 87.320312 49.550781 L 86.191406 49.550781 L 85.589844 46.832031 C 85.441406 46.175781 85.34375 45.625 85.273438 45 L 85.253906 45 C 85.152344 45.617188 85.042969 46.175781 84.871094 46.832031 L 84.203125 49.550781 L 83.0625 49.550781"/><path fill="#100F0D" d="M 90.585938 49.550781 L 89.171875 43.777344 L 90.296875 43.777344 L 90.84375 46.398438 C 90.988281 47.101562 91.125 47.839844 91.222656 48.410156 L 91.238281 48.410156 C 91.335938 47.800781 91.496094 47.117188 91.660156 46.390625 L 92.285156 43.777344 L 93.390625 43.777344 L 93.964844 46.433594 C 94.109375 47.117188 94.230469 47.761719 94.3125 48.386719 L 94.332031 48.386719 C 94.433594 47.75 94.574219 47.09375 94.726562 46.390625 L 95.324219 43.777344 L 96.398438 43.777344 L 94.84375 49.550781 L 93.714844 49.550781 L 93.117188 46.832031 C 92.964844 46.175781 92.867188 45.625 92.796875 45 L 92.777344 45 C 92.679688 45.617188 92.566406 46.175781 92.394531 46.832031 L 91.726562 49.550781 L 90.585938 49.550781"/><path fill="#100F0D" d="M 98.109375 49.550781 L 96.695312 43.777344 L 97.820312 43.777344 L 98.371094 46.398438 C 98.511719 47.101562 98.648438 47.839844 98.746094 48.410156 L 98.761719 48.410156 C 98.859375 47.800781 99.019531 47.117188 99.183594 46.390625 L 99.808594 43.777344 L 100.914062 43.777344 L 101.488281 46.433594 C 101.632812 47.117188 101.753906 47.761719 101.839844 48.386719 L 101.859375 48.386719 C 101.957031 47.75 102.097656 47.09375 102.25 46.390625 L 102.847656 43.777344 L 103.921875 43.777344 L 102.371094 49.550781 L 101.238281 49.550781 L 100.640625 46.832031 C 100.488281 46.175781 100.390625 45.625 100.324219 45 L 100.300781 45 C 100.203125 45.617188 100.089844 46.175781 99.917969 46.832031 L 99.25 49.550781 L 98.109375 49.550781"/><path fill="#100F0D" d="M 103.902344 48.964844 C 103.902344 48.574219 104.179688 48.289062 104.554688 48.289062 C 104.9375 48.289062 105.207031 48.566406 105.207031 48.964844 C 105.207031 49.355469 104.949219 49.644531 104.554688 49.644531 C 104.171875 49.644531 103.902344 49.355469 103.902344 48.964844"/><path fill="#100F0D" d="M 134.582031 117.308594 C 138.398438 117.308594 141.492188 120.398438 141.492188 124.210938 C 141.492188 128.019531 138.398438 131.109375 134.582031 131.109375 C 130.769531 131.109375 127.675781 128.019531 127.675781 124.210938 C 127.675781 120.398438 130.769531 117.308594 134.582031 117.308594"/><path fill="#F68D11" d="M 134.585938 134.433594 C 128.9375 134.433594 124.355469 129.855469 124.355469 124.210938 C 124.355469 118.5625 128.9375 113.984375 134.585938 113.984375 C 140.238281 113.984375 144.820312 118.5625 144.820312 124.210938 C 144.820312 129.855469 140.238281 134.433594 134.585938 134.433594 Z M 157.273438 127.609375 L 157.273438 120.8125 L 150.351562 120.121094 C 149.957031 118.667969 149.347656 117.300781 148.574219 116.046875 L 153.039062 110.59375 L 148.230469 105.789062 L 142.554688 110.429688 C 141.367188 109.804688 140.09375 109.324219 138.75 109.023438 L 138.003906 101.558594 L 131.171875 101.558594 L 130.425781 109.023438 C 129.082031 109.324219 127.808594 109.804688 126.621094 110.429688 L 120.945312 105.789062 L 116.136719 110.59375 L 120.601562 116.046875 C 119.828125 117.300781 119.21875 118.667969 118.824219 120.121094 L 111.902344 120.8125 L 111.902344 127.609375 L 118.835938 128.300781 C 119.234375 129.753906 119.832031 131.121094 120.605469 132.375 L 116.132812 137.828125 L 120.945312 142.632812 L 126.617188 137.996094 C 127.804688 138.617188 129.082031 139.101562 130.421875 139.402344 L 131.171875 146.867188 L 138.003906 146.867188 L 138.75 139.402344 C 140.09375 139.101562 141.367188 138.617188 142.554688 137.996094 L 148.230469 142.632812 L 153.039062 137.828125 L 148.574219 132.371094 C 149.347656 131.121094 149.945312 129.753906 150.34375 128.300781 L 157.273438 127.609375"/><path fill="#100F0D" d="M 68.347656 97.449219 C 73.769531 97.449219 78.164062 101.839844 78.164062 107.253906 C 78.164062 112.671875 73.769531 117.0625 68.347656 117.0625 C 62.925781 117.0625 58.535156 112.671875 58.535156 107.253906 C 58.535156 101.839844 62.925781 97.449219 68.347656 97.449219"/><path fill="#62CBD8" d="M 68.347656 122.113281 C 60.085938 122.113281 53.386719 115.417969 53.386719 107.160156 C 53.386719 98.90625 60.085938 92.210938 68.347656 92.210938 C 76.613281 92.210938 83.3125 98.90625 83.3125 107.160156 C 83.3125 115.417969 76.613281 122.113281 68.347656 122.113281 Z M 101.53125 112.132812 L 101.53125 102.195312 L 91.40625 101.183594 C 90.824219 99.054688 89.9375 97.054688 88.804688 95.222656 L 95.332031 87.25 L 88.300781 80.222656 L 80 87.003906 C 78.261719 86.09375 76.398438 85.390625 74.433594 84.949219 L 73.339844 74.03125 L 63.355469 74.03125 L 62.261719 84.949219 C 60.296875 85.390625 58.433594 86.09375 56.699219 87.003906 L 48.398438 80.222656 L 41.363281 87.25 L 47.890625 95.222656 C 46.761719 97.054688 45.871094 99.054688 45.292969 101.183594 L 35.164062 102.195312 L 35.164062 112.132812 L 45.304688 113.144531 C 45.890625 115.269531 46.765625 117.269531 47.894531 119.097656 L 41.363281 127.078125 L 48.398438 134.105469 L 56.695312 127.324219 C 58.433594 128.234375 60.296875 128.933594 62.261719 129.378906 L 63.355469 140.296875 L 73.347656 140.296875 L 74.441406 129.378906 C 76.40625 128.9375 78.269531 128.238281 80.003906 127.324219 L 88.304688 134.105469 L 95.335938 127.078125 L 88.804688 119.097656 C 89.9375 117.269531 90.8125 115.269531 91.394531 113.144531 L 101.53125 112.132812"/></svg>