<svg xmlns="http://www.w3.org/2000/svg" xmlns:xlink="http://www.w3.org/1999/xlink" width="192" viewBox="0 0 192 192" height="192" version="1.0"><defs><clipPath id="a"><path d="M 19.199219 31 L 118.199219 31 L 118.199219 118.199219 L 19.199219 118.199219 Z M 19.199219 31"/></clipPath><clipPath id="b"><path d="M 19.199219 19.199219 L 118.199219 19.199219 L 118.199219 33 L 19.199219 33 Z M 19.199219 19.199219"/></clipPath><clipPath id="c"><path d="M 89.8125 80.855469 L 159 80.855469 L 159 150 L 89.8125 150 Z M 89.8125 80.855469"/></clipPath><clipPath id="d"><path d="M 135.621094 80.847656 C 112.210938 80.847656 113.671875 91.054688 113.671875 91.054688 L 113.699219 101.628906 L 136.035156 101.628906 L 136.035156 104.804688 L 104.824219 104.804688 C 104.824219 104.804688 89.847656 103.097656 89.847656 126.84375 C 89.847656 150.59375 102.921875 149.753906 102.921875 149.753906 L 110.722656 149.753906 L 110.722656 138.730469 C 110.722656 138.730469 110.304688 125.585938 123.589844 125.585938 L 145.746094 125.585938 C 145.746094 125.585938 158.191406 125.789062 158.191406 113.488281 L 158.191406 93.152344 C 158.191406 93.152344 160.082031 80.847656 135.621094 80.847656 Z M 123.300781 87.957031 C 125.523438 87.957031 127.320312 89.765625 127.320312 92 C 127.320312 94.234375 125.523438 96.039062 123.300781 96.039062 C 121.078125 96.039062 119.285156 94.234375 119.285156 92 C 119.285156 89.765625 121.078125 87.957031 123.300781 87.957031 Z M 123.300781 87.957031"/></clipPath><clipPath id="f"><path d="M 113 104 L 182.0625 104 L 182.0625 173.105469 L 113 173.105469 Z M 113 104"/></clipPath><clipPath id="g"><path d="M 136.285156 173.082031 C 159.695312 173.082031 158.230469 162.875 158.230469 162.875 L 158.207031 152.296875 L 135.867188 152.296875 L 135.867188 149.125 L 167.078125 149.125 C 167.078125 149.125 182.058594 150.832031 182.058594 127.085938 C 182.058594 103.332031 168.984375 104.175781 168.984375 104.175781 L 161.179688 104.175781 L 161.179688 115.195312 C 161.179688 115.195312 161.601562 128.34375 148.316406 128.34375 L 126.15625 128.34375 C 126.15625 128.34375 113.710938 128.140625 113.710938 140.441406 L 113.710938 160.773438 C 113.710938 160.773438 111.820312 173.082031 136.285156 173.082031 Z M 148.601562 165.96875 C 146.382812 165.96875 144.582031 164.160156 144.582031 161.929688 C 144.582031 159.691406 146.382812 157.886719 148.601562 157.886719 C 150.824219 157.886719 152.621094 159.691406 152.621094 161.929688 C 152.621094 164.160156 150.824219 165.96875 148.601562 165.96875 Z M 148.601562 165.96875"/></clipPath><linearGradient x1=".004" gradientTransform="matrix(68.3785 0 0 68.90912 89.847 80.847)" y1="-.004" x2="1.028" gradientUnits="userSpaceOnUse" y2="1.012" xlink:type="simple" xlink:actuate="onLoad" id="e" xlink:show="other"><stop stop-color="#387EB8" offset="0"/><stop stop-color="#387EB8" offset=".125"/><stop stop-color="#387EB8" offset=".141"/><stop stop-color="#387DB7" offset=".156"/><stop stop-color="#387DB6" offset=".172"/><stop stop-color="#387CB5" offset=".188"/><stop stop-color="#387CB4" offset=".203"/><stop stop-color="#387BB3" offset=".219"/><stop stop-color="#387BB2" offset=".234"/><stop stop-color="#387AB1" offset=".25"/><stop stop-color="#387AB1" offset=".266"/><stop stop-color="#3879B0" offset=".281"/><stop stop-color="#3879AF" offset=".297"/><stop stop-color="#3878AE" offset=".313"/><stop stop-color="#3778AD" offset=".328"/><stop stop-color="#3777AC" offset=".344"/><stop stop-color="#3777AB" offset=".359"/><stop stop-color="#3776AB" offset=".375"/><stop stop-color="#3776AA" offset=".391"/><stop stop-color="#3775A9" offset=".406"/><stop stop-color="#3775A8" offset=".422"/><stop stop-color="#3774A7" offset=".438"/><stop stop-color="#3774A6" offset=".453"/><stop stop-color="#3773A5" offset=".469"/><stop stop-color="#3773A4" offset=".484"/><stop stop-color="#3772A4" offset=".494"/><stop stop-color="#3772A3" offset=".5"/><stop stop-color="#3772A3" offset=".506"/><stop stop-color="#3771A2" offset=".516"/><stop stop-color="#3771A2" offset=".531"/><stop stop-color="#3771A1" offset=".547"/><stop stop-color="#3770A0" offset=".563"/><stop stop-color="#37709F" offset=".578"/><stop stop-color="#376F9E" offset=".594"/><stop stop-color="#376F9D" offset=".609"/><stop stop-color="#376E9D" offset=".625"/><stop stop-color="#366E9C" offset=".641"/><stop stop-color="#366D9B" offset=".656"/><stop stop-color="#366D9A" offset=".672"/><stop stop-color="#366C99" offset=".688"/><stop stop-color="#366C98" offset=".703"/><stop stop-color="#366B97" offset=".719"/><stop stop-color="#366B97" offset=".734"/><stop stop-color="#366A96" offset=".75"/><stop stop-color="#366A95" offset=".766"/><stop stop-color="#366994" offset=".781"/><stop stop-color="#366994" offset=".813"/><stop stop-color="#366994" offset=".875"/><stop stop-color="#366994" offset="1"/></linearGradient><linearGradient x1="-.033" gradientTransform="matrix(68.38058 0 0 68.90946 113.677 104.172)" y1="-.006" x2="1.014" gradientUnits="userSpaceOnUse" y2=".985" xlink:type="simple" xlink:actuate="onLoad" id="h" xlink:show="other"><stop stop-color="#FFE052" offset="0"/><stop stop-color="#FFE052" offset=".125"/><stop stop-color="#FFE052" offset=".188"/><stop stop-color="#FFE052" offset=".219"/><stop stop-color="#FFDF51" offset=".234"/><stop stop-color="#FFDF51" offset=".25"/><stop stop-color="#FFDE50" offset=".266"/><stop stop-color="#FFDD4F" offset=".281"/><stop stop-color="#FFDD4E" offset=".297"/><stop stop-color="#FFDC4E" offset=".313"/><stop stop-color="#FFDB4D" offset=".328"/><stop stop-color="#FFDB4C" offset=".344"/><stop stop-color="#FFDA4B" offset=".359"/><stop stop-color="#FFD94B" offset=".375"/><stop stop-color="#FFD94A" offset=".391"/><stop stop-color="#FFD849" offset=".406"/><stop stop-color="#FFD748" offset=".422"/><stop stop-color="#FFD748" offset=".438"/><stop stop-color="#FFD647" offset=".453"/><stop stop-color="#FFD546" offset=".469"/><stop stop-color="#FFD545" offset=".483"/><stop stop-color="#FFD445" offset=".484"/><stop stop-color="#FFD445" offset=".5"/><stop stop-color="#FFD444" offset=".516"/><stop stop-color="#FFD343" offset=".517"/><stop stop-color="#FFD343" offset=".531"/><stop stop-color="#FFD242" offset=".547"/><stop stop-color="#FFD242" offset=".563"/><stop stop-color="#FFD141" offset=".578"/><stop stop-color="#FFD040" offset=".594"/><stop stop-color="#FFD03F" offset=".609"/><stop stop-color="#FFCF3F" offset=".625"/><stop stop-color="#FFCE3E" offset=".641"/><stop stop-color="#FFCE3D" offset=".656"/><stop stop-color="#FFCD3C" offset=".672"/><stop stop-color="#FFCC3C" offset=".688"/><stop stop-color="#FFCC3B" offset=".703"/><stop stop-color="#FFCB3A" offset=".719"/><stop stop-color="#FFCA39" offset=".734"/><stop stop-color="#FFCA39" offset=".75"/><stop stop-color="#FFC938" offset=".766"/><stop stop-color="#FFC837" offset=".781"/><stop stop-color="#FFC836" offset=".797"/><stop stop-color="#FFC735" offset=".813"/><stop stop-color="#FFC635" offset=".828"/><stop stop-color="#FFC634" offset=".844"/><stop stop-color="#FFC533" offset=".859"/><stop stop-color="#FFC432" offset=".875"/><stop stop-color="#FFC432" offset=".891"/><stop stop-color="#FFC331" offset=".906"/><stop stop-color="#FFC331" offset=".938"/><stop stop-color="#FFC331" offset="1"/></linearGradient></defs><g clip-path="url(#a)"><path fill="#DDEDF9" d="M 118.199219 32.855469 L 118.199219 113.078125 C 118.199219 115.914062 115.914062 118.199219 113.078125 118.199219 L 24.320312 118.199219 C 21.488281 118.199219 19.199219 115.914062 19.199219 113.078125 L 19.199219 32.855469 L 20.90625 31.148438 L 116.492188 31.148438 L 118.199219 32.855469"/></g><g clip-path="url(#b)"><path fill="#505A73" d="M 118.199219 24.320312 L 118.199219 32.855469 L 19.199219 32.855469 L 19.199219 24.320312 C 19.199219 21.488281 21.488281 19.199219 24.320312 19.199219 L 113.078125 19.199219 C 115.914062 19.199219 118.199219 21.488281 118.199219 24.320312"/></g><path fill="#78CE80" d="M 27.734375 27.734375 L 26.027344 27.734375 C 25.085938 27.734375 24.320312 26.96875 24.320312 26.027344 C 24.320312 25.085938 25.085938 24.320312 26.027344 24.320312 L 27.734375 24.320312 C 28.675781 24.320312 29.441406 25.085938 29.441406 26.027344 C 29.441406 26.96875 28.675781 27.734375 27.734375 27.734375"/><path fill="#F5DE3B" d="M 36.269531 27.734375 L 34.5625 27.734375 C 33.621094 27.734375 32.855469 26.96875 32.855469 26.027344 C 32.855469 25.085938 33.621094 24.320312 34.5625 24.320312 L 36.269531 24.320312 C 37.210938 24.320312 37.976562 25.085938 37.976562 26.027344 C 37.976562 26.96875 37.210938 27.734375 36.269531 27.734375"/><path fill="#F14A71" d="M 44.804688 27.734375 L 43.097656 27.734375 C 42.15625 27.734375 41.390625 26.96875 41.390625 26.027344 C 41.390625 25.085938 42.15625 24.320312 43.097656 24.320312 L 44.804688 24.320312 C 45.742188 24.320312 46.511719 25.085938 46.511719 26.027344 C 46.511719 26.96875 45.742188 27.734375 44.804688 27.734375"/><path fill="#394356" d="M 111.371094 27.734375 L 101.132812 27.734375 C 100.191406 27.734375 99.425781 26.96875 99.425781 26.027344 C 99.425781 25.085938 100.191406 24.320312 101.132812 24.320312 L 111.371094 24.320312 C 112.3125 24.320312 113.078125 25.085938 113.078125 26.027344 C 113.078125 26.96875 112.3125 27.734375 111.371094 27.734375"/><path fill="#6088CE" d="M 32.855469 43.097656 L 31.148438 43.097656 C 30.207031 43.097656 29.441406 42.328125 29.441406 41.390625 C 29.441406 40.449219 30.207031 39.683594 31.148438 39.683594 L 32.855469 39.683594 C 33.796875 39.683594 34.5625 40.449219 34.5625 41.390625 C 34.5625 42.328125 33.796875 43.097656 32.855469 43.097656"/><path fill="#F14A71" d="M 56.75 43.097656 L 39.683594 43.097656 C 38.742188 43.097656 37.976562 42.328125 37.976562 41.390625 C 37.976562 40.449219 38.742188 39.683594 39.683594 39.683594 L 56.75 39.683594 C 57.691406 39.683594 58.457031 40.449219 58.457031 41.390625 C 58.457031 42.328125 57.691406 43.097656 56.75 43.097656"/><path fill="#F14A71" d="M 56.75 63.578125 L 39.683594 63.578125 C 38.742188 63.578125 37.976562 62.8125 37.976562 61.871094 C 37.976562 60.933594 38.742188 60.164062 39.683594 60.164062 L 56.75 60.164062 C 57.691406 60.164062 58.457031 60.933594 58.457031 61.871094 C 58.457031 62.8125 57.691406 63.578125 56.75 63.578125"/><path fill="#8886CB" d="M 78.535156 63.578125 L 63.578125 63.578125 C 62.640625 63.578125 61.871094 62.8125 61.871094 61.871094 C 61.871094 60.933594 62.640625 60.164062 63.578125 60.164062 L 78.535156 60.164062 C 79.476562 60.164062 80.242188 60.933594 80.242188 61.871094 C 80.242188 62.8125 79.476562 63.578125 78.535156 63.578125"/><path fill="#F14A71" d="M 51.632812 49.925781 L 39.683594 49.925781 C 38.742188 49.925781 37.976562 49.15625 37.976562 48.21875 C 37.976562 47.277344 38.742188 46.511719 39.683594 46.511719 L 51.632812 46.511719 C 52.570312 46.511719 53.335938 47.277344 53.335938 48.21875 C 53.335938 49.15625 52.570312 49.925781 51.632812 49.925781"/><path fill="#F14A71" d="M 51.632812 90.890625 L 39.683594 90.890625 C 38.742188 90.890625 37.976562 90.121094 37.976562 89.183594 C 37.976562 88.242188 38.742188 87.476562 39.683594 87.476562 L 51.632812 87.476562 C 52.570312 87.476562 53.335938 88.242188 53.335938 89.183594 C 53.335938 90.121094 52.570312 90.890625 51.632812 90.890625"/><path fill="#F14A71" d="M 43.097656 56.75 L 39.683594 56.75 C 38.742188 56.75 37.976562 55.984375 37.976562 55.042969 C 37.976562 54.105469 38.742188 53.335938 39.683594 53.335938 L 43.097656 53.335938 C 44.035156 53.335938 44.804688 54.105469 44.804688 55.042969 C 44.804688 55.984375 44.035156 56.75 43.097656 56.75"/><path fill="#8886CB" d="M 53.335938 56.75 L 49.925781 56.75 C 48.984375 56.75 48.21875 55.984375 48.21875 55.042969 C 48.21875 54.105469 48.984375 53.335938 49.925781 53.335938 L 53.335938 53.335938 C 54.277344 53.335938 55.042969 54.105469 55.042969 55.042969 C 55.042969 55.984375 54.277344 56.75 53.335938 56.75"/><path fill="#F14A71" d="M 49.925781 70.40625 L 39.683594 70.40625 C 38.742188 70.40625 37.976562 69.640625 37.976562 68.699219 C 37.976562 67.761719 38.742188 66.992188 39.683594 66.992188 L 49.925781 66.992188 C 50.863281 66.992188 51.632812 67.761719 51.632812 68.699219 C 51.632812 69.640625 50.863281 70.40625 49.925781 70.40625"/><path fill="#F14A71" d="M 51.632812 77.234375 L 39.683594 77.234375 C 38.742188 77.234375 37.976562 76.46875 37.976562 75.527344 C 37.976562 74.585938 38.742188 73.820312 39.683594 73.820312 L 51.632812 73.820312 C 52.570312 73.820312 53.335938 74.585938 53.335938 75.527344 C 53.335938 76.46875 52.570312 77.234375 51.632812 77.234375"/><path fill="#F14A71" d="M 43.097656 84.0625 L 39.683594 84.0625 C 38.742188 84.0625 37.976562 83.296875 37.976562 82.355469 C 37.976562 81.414062 38.742188 80.648438 39.683594 80.648438 L 43.097656 80.648438 C 44.035156 80.648438 44.804688 81.414062 44.804688 82.355469 C 44.804688 83.296875 44.035156 84.0625 43.097656 84.0625"/><path fill="#8886CB" d="M 53.335938 84.0625 L 49.925781 84.0625 C 48.984375 84.0625 48.21875 83.296875 48.21875 82.355469 C 48.21875 81.414062 48.984375 80.648438 49.925781 80.648438 L 53.335938 80.648438 C 54.277344 80.648438 55.042969 81.414062 55.042969 82.355469 C 55.042969 83.296875 54.277344 84.0625 53.335938 84.0625"/><path fill="#8886CB" d="M 106.25 84.0625 L 102.835938 84.0625 C 101.898438 84.0625 101.132812 83.296875 101.132812 82.355469 C 101.132812 81.414062 101.898438 80.648438 102.835938 80.648438 L 106.25 80.648438 C 107.191406 80.648438 107.957031 81.414062 107.957031 82.355469 C 107.957031 83.296875 107.191406 84.0625 106.25 84.0625"/><path fill="#8886CB" d="M 60.164062 70.40625 L 56.75 70.40625 C 55.8125 70.40625 55.042969 69.640625 55.042969 68.699219 C 55.042969 67.761719 55.8125 66.992188 56.75 66.992188 L 60.164062 66.992188 C 61.105469 66.992188 61.871094 67.761719 61.871094 68.699219 C 61.871094 69.640625 61.105469 70.40625 60.164062 70.40625"/><path fill="#8886CB" d="M 65.078125 77.234375 L 58.457031 77.234375 C 57.519531 77.234375 56.75 76.46875 56.75 75.527344 C 56.75 74.585938 57.519531 73.820312 58.457031 73.820312 L 65.078125 73.820312 C 66.027344 73.820312 66.785156 74.585938 66.785156 75.527344 C 66.785156 76.46875 66.027344 77.234375 65.078125 77.234375"/><path fill="#66C874" d="M 77.234375 43.097656 L 63.578125 43.097656 C 62.640625 43.097656 61.871094 42.328125 61.871094 41.390625 C 61.871094 40.449219 62.640625 39.683594 63.578125 39.683594 L 77.234375 39.683594 C 78.175781 39.683594 78.941406 40.449219 78.941406 41.390625 C 78.941406 42.328125 78.175781 43.097656 77.234375 43.097656"/><path fill="#66C874" d="M 97.71875 63.578125 L 85.769531 63.578125 C 84.828125 63.578125 84.0625 62.8125 84.0625 61.871094 C 84.0625 60.933594 84.828125 60.164062 85.769531 60.164062 L 97.71875 60.164062 C 98.65625 60.164062 99.425781 60.933594 99.425781 61.871094 C 99.425781 62.8125 98.65625 63.578125 97.71875 63.578125"/><path fill="#8886CB" d="M 70.40625 49.925781 L 58.457031 49.925781 C 57.519531 49.925781 56.75 49.15625 56.75 48.21875 C 56.75 47.277344 57.519531 46.511719 58.457031 46.511719 L 70.40625 46.511719 C 71.347656 46.511719 72.113281 47.277344 72.113281 48.21875 C 72.113281 49.15625 71.347656 49.925781 70.40625 49.925781"/><path fill="#66C874" d="M 70.40625 90.890625 L 58.457031 90.890625 C 57.519531 90.890625 56.75 90.121094 56.75 89.183594 C 56.75 88.242188 57.519531 87.476562 58.457031 87.476562 L 70.40625 87.476562 C 71.347656 87.476562 72.113281 88.242188 72.113281 89.183594 C 72.113281 90.121094 71.347656 90.890625 70.40625 90.890625"/><path fill="#66C874" d="M 72.113281 56.75 L 60.164062 56.75 C 59.226562 56.75 58.457031 55.984375 58.457031 55.042969 C 58.457031 54.105469 59.226562 53.335938 60.164062 53.335938 L 72.113281 53.335938 C 73.054688 53.335938 73.820312 54.105469 73.820312 55.042969 C 73.820312 55.984375 73.054688 56.75 72.113281 56.75"/><path fill="#66C874" d="M 84.0625 49.925781 L 77.234375 49.925781 C 76.292969 49.925781 75.527344 49.15625 75.527344 48.21875 C 75.527344 47.277344 76.292969 46.511719 77.234375 46.511719 L 84.0625 46.511719 C 85.003906 46.511719 85.769531 47.277344 85.769531 48.21875 C 85.769531 49.15625 85.003906 49.925781 84.0625 49.925781"/><path fill="#66C874" d="M 72.113281 84.0625 L 60.164062 84.0625 C 59.226562 84.0625 58.457031 83.296875 58.457031 82.355469 C 58.457031 81.414062 59.226562 80.648438 60.164062 80.648438 L 72.113281 80.648438 C 73.054688 80.648438 73.820312 81.414062 73.820312 82.355469 C 73.820312 83.296875 73.054688 84.0625 72.113281 84.0625"/><path fill="#66C874" d="M 78.941406 70.40625 L 66.992188 70.40625 C 66.046875 70.40625 65.285156 69.640625 65.285156 68.699219 C 65.285156 67.761719 66.046875 66.992188 66.992188 66.992188 L 78.941406 66.992188 C 79.882812 66.992188 80.648438 67.761719 80.648438 68.699219 C 80.648438 69.640625 79.882812 70.40625 78.941406 70.40625"/><path fill="#66C874" d="M 83.855469 77.234375 L 72.113281 77.234375 C 71.171875 77.234375 70.40625 76.46875 70.40625 75.527344 C 70.40625 74.582031 71.171875 73.820312 72.113281 73.820312 L 83.855469 73.820312 C 84.800781 73.820312 85.5625 74.585938 85.5625 75.527344 C 85.5625 76.46875 84.796875 77.234375 83.855469 77.234375"/><path fill="#66C874" d="M 96.011719 84.0625 L 79.148438 84.0625 C 78.203125 84.0625 77.441406 83.296875 77.441406 82.355469 C 77.441406 81.414062 78.203125 80.648438 79.148438 80.648438 L 96.011719 80.648438 C 96.949219 80.648438 97.71875 81.414062 97.71875 82.355469 C 97.71875 83.296875 96.949219 84.0625 96.011719 84.0625"/><path fill="#6088CE" d="M 32.855469 49.925781 L 31.148438 49.925781 C 30.207031 49.925781 29.441406 49.15625 29.441406 48.21875 C 29.441406 47.277344 30.207031 46.511719 31.148438 46.511719 L 32.855469 46.511719 C 33.796875 46.511719 34.5625 47.277344 34.5625 48.21875 C 34.5625 49.15625 33.796875 49.925781 32.855469 49.925781"/><path fill="#6088CE" d="M 32.855469 56.75 L 31.148438 56.75 C 30.207031 56.75 29.441406 55.984375 29.441406 55.042969 C 29.441406 54.105469 30.207031 53.335938 31.148438 53.335938 L 32.855469 53.335938 C 33.796875 53.335938 34.5625 54.105469 34.5625 55.042969 C 34.5625 55.984375 33.796875 56.75 32.855469 56.75"/><path fill="#6088CE" d="M 32.855469 63.578125 L 31.148438 63.578125 C 30.207031 63.578125 29.441406 62.8125 29.441406 61.871094 C 29.441406 60.933594 30.207031 60.164062 31.148438 60.164062 L 32.855469 60.164062 C 33.796875 60.164062 34.5625 60.933594 34.5625 61.871094 C 34.5625 62.8125 33.796875 63.578125 32.855469 63.578125"/><path fill="#6088CE" d="M 32.855469 70.40625 L 31.148438 70.40625 C 30.207031 70.40625 29.441406 69.640625 29.441406 68.699219 C 29.441406 67.761719 30.207031 66.992188 31.148438 66.992188 L 32.855469 66.992188 C 33.796875 66.992188 34.5625 67.761719 34.5625 68.699219 C 34.5625 69.640625 33.796875 70.40625 32.855469 70.40625"/><path fill="#6088CE" d="M 32.855469 77.234375 L 31.148438 77.234375 C 30.207031 77.234375 29.441406 76.46875 29.441406 75.527344 C 29.441406 74.585938 30.207031 73.820312 31.148438 73.820312 L 32.855469 73.820312 C 33.796875 73.820312 34.5625 74.585938 34.5625 75.527344 C 34.5625 76.46875 33.796875 77.234375 32.855469 77.234375"/><path fill="#6088CE" d="M 32.855469 84.0625 L 31.148438 84.0625 C 30.207031 84.0625 29.441406 83.296875 29.441406 82.355469 C 29.441406 81.414062 30.207031 80.648438 31.148438 80.648438 L 32.855469 80.648438 C 33.796875 80.648438 34.5625 81.414062 34.5625 82.355469 C 34.5625 83.296875 33.796875 84.0625 32.855469 84.0625"/><path fill="#6088CE" d="M 32.855469 90.890625 L 31.148438 90.890625 C 30.207031 90.890625 29.441406 90.121094 29.441406 89.183594 C 29.441406 88.242188 30.207031 87.476562 31.148438 87.476562 L 32.855469 87.476562 C 33.796875 87.476562 34.5625 88.242188 34.5625 89.183594 C 34.5625 90.121094 33.796875 90.890625 32.855469 90.890625"/><path fill="#F14A71" d="M 51.632812 111.371094 L 39.683594 111.371094 C 38.742188 111.371094 37.976562 110.605469 37.976562 109.664062 C 37.976562 108.726562 38.742188 107.957031 39.683594 107.957031 L 51.632812 107.957031 C 52.570312 107.957031 53.335938 108.726562 53.335938 109.664062 C 53.335938 110.605469 52.570312 111.371094 51.632812 111.371094"/><path fill="#F14A71" d="M 51.632812 97.71875 L 39.683594 97.71875 C 38.742188 97.71875 37.976562 96.949219 37.976562 96.011719 C 37.976562 95.070312 38.742188 94.304688 39.683594 94.304688 L 51.632812 94.304688 C 52.570312 94.304688 53.335938 95.070312 53.335938 96.011719 C 53.335938 96.949219 52.570312 97.71875 51.632812 97.71875"/><path fill="#F14A71" d="M 43.097656 104.542969 L 39.683594 104.542969 C 38.742188 104.542969 37.976562 103.777344 37.976562 102.835938 C 37.976562 101.898438 38.742188 101.132812 39.683594 101.132812 L 43.097656 101.132812 C 44.035156 101.132812 44.804688 101.898438 44.804688 102.835938 C 44.804688 103.777344 44.035156 104.542969 43.097656 104.542969"/><path fill="#8886CB" d="M 53.335938 104.542969 L 49.925781 104.542969 C 48.984375 104.542969 48.21875 103.777344 48.21875 102.835938 C 48.21875 101.898438 48.984375 101.132812 49.925781 101.132812 L 53.335938 101.132812 C 54.277344 101.132812 55.042969 101.898438 55.042969 102.835938 C 55.042969 103.777344 54.277344 104.542969 53.335938 104.542969"/><path fill="#8886CB" d="M 65.078125 97.71875 L 58.457031 97.71875 C 57.519531 97.71875 56.75 96.949219 56.75 96.011719 C 56.75 95.070312 57.519531 94.304688 58.457031 94.304688 L 65.078125 94.304688 C 66.027344 94.304688 66.785156 95.070312 66.785156 96.011719 C 66.785156 96.949219 66.027344 97.71875 65.078125 97.71875"/><path fill="#66C874" d="M 70.40625 111.371094 L 58.457031 111.371094 C 57.519531 111.371094 56.75 110.605469 56.75 109.664062 C 56.75 108.726562 57.519531 107.957031 58.457031 107.957031 L 70.40625 107.957031 C 71.347656 107.957031 72.113281 108.726562 72.113281 109.664062 C 72.113281 110.605469 71.347656 111.371094 70.40625 111.371094"/><path fill="#66C874" d="M 72.113281 104.542969 L 60.164062 104.542969 C 59.226562 104.542969 58.457031 103.777344 58.457031 102.835938 C 58.457031 101.898438 59.226562 101.132812 60.164062 101.132812 L 72.113281 101.132812 C 73.054688 101.132812 73.820312 101.898438 73.820312 102.835938 C 73.820312 103.777344 73.054688 104.542969 72.113281 104.542969"/><path fill="#66C874" d="M 83.855469 97.71875 L 72.113281 97.71875 C 71.171875 97.71875 70.40625 96.949219 70.40625 96.011719 C 70.40625 95.0625 71.171875 94.304688 72.113281 94.304688 L 83.855469 94.304688 C 84.800781 94.304688 85.5625 95.070312 85.5625 96.011719 C 85.5625 96.949219 84.796875 97.71875 83.855469 97.71875"/><path fill="#6088CE" d="M 32.855469 97.71875 L 31.148438 97.71875 C 30.207031 97.71875 29.441406 96.949219 29.441406 96.011719 C 29.441406 95.070312 30.207031 94.304688 31.148438 94.304688 L 32.855469 94.304688 C 33.796875 94.304688 34.5625 95.070312 34.5625 96.011719 C 34.5625 96.949219 33.796875 97.71875 32.855469 97.71875"/><path fill="#6088CE" d="M 32.855469 104.542969 L 31.148438 104.542969 C 30.207031 104.542969 29.441406 103.777344 29.441406 102.835938 C 29.441406 101.898438 30.207031 101.132812 31.148438 101.132812 L 32.855469 101.132812 C 33.796875 101.132812 34.5625 101.898438 34.5625 102.835938 C 34.5625 103.777344 33.796875 104.542969 32.855469 104.542969"/><path fill="#6088CE" d="M 32.855469 111.371094 L 31.148438 111.371094 C 30.207031 111.371094 29.441406 110.605469 29.441406 109.664062 C 29.441406 108.726562 30.207031 107.957031 31.148438 107.957031 L 32.855469 107.957031 C 33.796875 107.957031 34.5625 108.726562 34.5625 109.664062 C 34.5625 110.605469 33.796875 111.371094 32.855469 111.371094"/><g clip-path="url(#c)"><g clip-path="url(#d)"><path fill="url(#e)" d="M 89.847656 80.855469 L 89.847656 150.59375 L 160.082031 150.59375 L 160.082031 80.855469 Z M 89.847656 80.855469"/></g></g><g clip-path="url(#f)"><g clip-path="url(#g)"><path fill="url(#h)" d="M 111.820312 103.332031 L 111.820312 173.082031 L 182.058594 173.082031 L 182.058594 103.332031 Z M 111.820312 103.332031"/></g></g></svg>