<svg xmlns="http://www.w3.org/2000/svg" viewBox="0 0 127.92 46.47"><defs><style>.cls-1{fill:#fff;}</style></defs><g id="Capa_2" data-name="Capa 2"><g id="logos"><polygon class="cls-1" points="38.26 18.14 41.48 18.14 44.69 18.14 44.69 19.06 44.69 19.99 42.42 19.99 40.17 19.99 40.17 21.63 40.17 23.27 42.42 23.27 44.69 23.27 44.69 24.2 44.69 25.12 42.42 25.12 40.17 25.12 40.17 28.16 40.17 31.2 39.21 31.2 38.26 31.2 38.26 24.67 38.26 18.14"/><path class="cls-1" d="M22.15,28.21a4.09,4.09,0,0,1-3.22,1.43,4.32,4.32,0,0,1-1.78-.35,4.23,4.23,0,0,1-1.44-1.05,4.64,4.64,0,0,1-1-1.59,5.68,5.68,0,0,1-.32-1.94,6,6,0,0,1,.32-2,4.59,4.59,0,0,1,1-1.6,4.24,4.24,0,0,1,1.45-1.06A4.64,4.64,0,0,1,19,19.71a4.18,4.18,0,0,1,1.75.36,4.33,4.33,0,0,1,1.43,1.06,4.89,4.89,0,0,1,1,1.59,5.4,5.4,0,0,1,.33,1.91,5.66,5.66,0,0,1-.33,2,4.78,4.78,0,0,1-1,1.61m1.41-8.34a6.16,6.16,0,0,0-2.1-1.44A6.6,6.6,0,0,0,18.9,18a6.65,6.65,0,0,0-2.55.47,6,6,0,0,0-2.06,1.44A6.31,6.31,0,0,0,12.91,22a7.59,7.59,0,0,0-.45,2.67,7.26,7.26,0,0,0,.45,2.61,6.38,6.38,0,0,0,1.36,2.14,6.22,6.22,0,0,0,2,1.42,6.55,6.55,0,0,0,2.5.47,7.09,7.09,0,0,0,2.61-.47A6.44,6.44,0,0,0,25,27.31a7.16,7.16,0,0,0,.47-2.63A7.26,7.26,0,0,0,25,22a6.4,6.4,0,0,0-1.39-2.16"/><path class="cls-1" d="M56.12,28.21a4.13,4.13,0,0,1-3.24,1.43,4.22,4.22,0,0,1-1.76-.35,4.17,4.17,0,0,1-1.45-1.05,5,5,0,0,1-1-1.59,5.68,5.68,0,0,1-.32-1.94,6,6,0,0,1,.32-2,4.91,4.91,0,0,1,1-1.6,4.34,4.34,0,0,1,1.45-1.06,4.64,4.64,0,0,1,1.81-.35,4.21,4.21,0,0,1,3.19,1.42,5,5,0,0,1,1,1.59,5.39,5.39,0,0,1,.32,1.91,5.66,5.66,0,0,1-.32,2,4.92,4.92,0,0,1-1,1.61m1.4-8.34a6.22,6.22,0,0,0-2.09-1.44A6.68,6.68,0,0,0,52.86,18a6.56,6.56,0,0,0-2.54.47,6.19,6.19,0,0,0-2.08,1.44A6.41,6.41,0,0,0,46.88,22a7.37,7.37,0,0,0-.46,2.67,7.26,7.26,0,0,0,.45,2.61,6.54,6.54,0,0,0,1.36,2.14,6.15,6.15,0,0,0,2.05,1.42,6.51,6.51,0,0,0,2.5.47,7,7,0,0,0,2.6-.47,6.44,6.44,0,0,0,3.53-3.57,7.16,7.16,0,0,0,.47-2.63A7.26,7.26,0,0,0,58.91,22a6.4,6.4,0,0,0-1.39-2.16"/><path class="cls-1" d="M10.69,28.21A4.91,4.91,0,0,1,9,29.29a5.5,5.5,0,0,1-2,.36,5.44,5.44,0,0,1-2-.36,4.79,4.79,0,0,1-1.64-1.05,4.74,4.74,0,0,1-1.1-1.59,5,5,0,0,1-.36-1.94,5.3,5.3,0,0,1,.36-2,4.65,4.65,0,0,1,1.09-1.6A5,5,0,0,1,5,20.06a5.84,5.84,0,0,1,2.05-.35,5.29,5.29,0,0,1,2,.36,4.91,4.91,0,0,1,1.64,1.06l0,0a0,0,0,0,0,0,0V19.05a12.75,12.75,0,0,0-2.21-.81,8.13,8.13,0,0,0-2-.27A6.56,6.56,0,0,0,4,18.46a6.25,6.25,0,0,0-2.09,1.45A6.48,6.48,0,0,0,.47,22.09,7.14,7.14,0,0,0,0,24.71a7,7,0,0,0,.21,1.73,6.68,6.68,0,0,0,.61,1.61,7.26,7.26,0,0,0,1,1.38,6,6,0,0,0,1.26,1,5.2,5.2,0,0,0,1.56.66,7.3,7.3,0,0,0,1.86.22,9.13,9.13,0,0,0,2.33-.28,7.89,7.89,0,0,0,2-.84V28.05h0l-.07.08-.08.07"/><path class="cls-1" d="M65.82,15.19a2.09,2.09,0,0,0-.75-.51,2.42,2.42,0,0,0-.91-.17,2.37,2.37,0,0,0-.9.17,2,2,0,0,0-.74.51A2.28,2.28,0,0,0,62,16a2.58,2.58,0,0,0-.16.94,2.61,2.61,0,0,0,.16.94,2.14,2.14,0,0,0,.48.75,2.1,2.1,0,0,0,.73.51,2.35,2.35,0,0,0,.89.17,2.52,2.52,0,0,0,.93-.17,2.09,2.09,0,0,0,.75-.51,2,2,0,0,0,.5-.76,2.58,2.58,0,0,0,.17-.94,2.62,2.62,0,0,0-.17-.94,2.34,2.34,0,0,0-.49-.77"/><path class="cls-1" d="M1.84,3.38H1v2H.69V.48H1.84A1.89,1.89,0,0,1,3,.82,1.27,1.27,0,0,1,3.5,1.89,1.39,1.39,0,0,1,3,3a1.9,1.9,0,0,1-1.18.35m0-2.6H1V3.07H1.8a1.49,1.49,0,0,0,1-.28,1.08,1.08,0,0,0,.36-.9A1,1,0,0,0,2.75,1,1.57,1.57,0,0,0,1.8.78"/><path class="cls-1" d="M5.83,2.13l-.18,0-.27,0a.89.89,0,0,0-.49.15,1.42,1.42,0,0,0-.37.31V5.34H4.18V1.81H4.4l0,.22,0,.21a1.68,1.68,0,0,1,.36-.31,1,1,0,0,1,.56-.17,2.22,2.22,0,0,1,.34,0l.13,0,0,.16Z"/><path class="cls-1" d="M7.46,5.41a1.24,1.24,0,0,1-1-.47,2.25,2.25,0,0,1-.37-1.38,2.26,2.26,0,0,1,.34-1.3,1.25,1.25,0,0,1,1.07-.52,1.24,1.24,0,0,1,1,.52,2.18,2.18,0,0,1,.37,1.3,2.2,2.2,0,0,1-.39,1.38,1.25,1.25,0,0,1-1,.47m0-3.4a.91.91,0,0,0-.82.43A2.14,2.14,0,0,0,6.4,3.56a2.37,2.37,0,0,0,.22,1.13.91.91,0,0,0,.84.45.9.9,0,0,0,.83-.42,2.18,2.18,0,0,0,.24-1.16,2,2,0,0,0-.26-1.13A.9.9,0,0,0,7.46,2"/><path class="cls-1" d="M10.75,5.34h-.21L10,3.58,9.39,1.81h.38l.52,1.66.53,1.67.52-1.67.52-1.66h.36l-.63,1.93L11,5.67a1.9,1.9,0,0,1-.5.87,1,1,0,0,1-.68.24,1.23,1.23,0,0,1-.39-.07,1.11,1.11,0,0,1-.29-.17l.06-.12.06-.12h0a.92.92,0,0,0,.23.14.84.84,0,0,0,.32.08.63.63,0,0,0,.51-.22,2,2,0,0,0,.4-.8l0-.08Z"/><path class="cls-1" d="M13.06,3.68a1.58,1.58,0,0,0,.34,1.11,1.12,1.12,0,0,0,.86.34A1.65,1.65,0,0,0,14.92,5a1.78,1.78,0,0,0,.45-.26l.06.14.05.13a3,3,0,0,1-.54.28,1.9,1.9,0,0,1-.7.13A1.4,1.4,0,0,1,13.14,5a2.16,2.16,0,0,1-.42-1.4,2.12,2.12,0,0,1,.38-1.34,1.29,1.29,0,0,1,1.05-.47,1.18,1.18,0,0,1,1,.51,2,2,0,0,1,.31,1.18v.25H13.06ZM14.13,2a.92.92,0,0,0-.82.44,1.73,1.73,0,0,0-.25.95h2.08a1.9,1.9,0,0,0-.21-.95.86.86,0,0,0-.8-.44"/><path class="cls-1" d="M18.82,5.1a3.28,3.28,0,0,1-.45.21,2.18,2.18,0,0,1-.66.1,1.32,1.32,0,0,1-1-.41,2,2,0,0,1-.42-1.42,2,2,0,0,1,.42-1.38,1.27,1.27,0,0,1,1-.46,3,3,0,0,1,.58.06A2.25,2.25,0,0,1,18.8,2l-.06.13-.06.14a1.44,1.44,0,0,0-.46-.19,2.22,2.22,0,0,0-.53,0,1,1,0,0,0-.81.41,2,2,0,0,0-.29,1.13,1.9,1.9,0,0,0,.3,1.18,1,1,0,0,0,.82.37A1.78,1.78,0,0,0,18.3,5a1.64,1.64,0,0,0,.44-.21l0,.14Z"/><path class="cls-1" d="M20.43,5.41a.78.78,0,0,1-.55-.18.93.93,0,0,1-.26-.74V2.07h-.53V1.81h.53V1.15l.17,0L20,1v.77H21v.26H20V4.49a.77.77,0,0,0,.12.48.45.45,0,0,0,.39.16,1.2,1.2,0,0,0,.33-.06A1.15,1.15,0,0,0,21,5l0,.12,0,.13a.92.92,0,0,1-.28.13,1.4,1.4,0,0,1-.41.06"/><path class="cls-1" d="M23.16,5.41a1.24,1.24,0,0,1-1-.47,2.25,2.25,0,0,1-.37-1.38,2.26,2.26,0,0,1,.34-1.3,1.34,1.34,0,0,1,2.12,0,2.11,2.11,0,0,1,.37,1.3,2.27,2.27,0,0,1-.38,1.38,1.28,1.28,0,0,1-1,.47m0-3.4a.91.91,0,0,0-.82.43,2.24,2.24,0,0,0-.24,1.12,2.26,2.26,0,0,0,.23,1.13.89.89,0,0,0,.83.45A.87.87,0,0,0,24,4.72a2.17,2.17,0,0,0,.25-1.16A2.12,2.12,0,0,0,24,2.43.9.9,0,0,0,23.16,2"/><path class="cls-1" d="M28.79,5.34l0-.24,0-.23a1.54,1.54,0,0,1-.45.37,1.32,1.32,0,0,1-.64.17,1.1,1.1,0,0,1-.82-.31,1.12,1.12,0,0,1-.28-.74.88.88,0,0,1,.31-.72,1.32,1.32,0,0,1,.88-.27h1V3a1.16,1.16,0,0,0-.21-.77A.82.82,0,0,0,27.82,2a2.31,2.31,0,0,0-.61.08,2.23,2.23,0,0,0-.44.15l-.05-.13L26.66,2a3.67,3.67,0,0,1,.48-.17,3,3,0,0,1,.74-.09,1.12,1.12,0,0,1,.84.3A1.3,1.3,0,0,1,29,3V5.34h-.23Zm-.1-1.7h-.94a1.07,1.07,0,0,0-.71.2.64.64,0,0,0-.19.5.82.82,0,0,0,.2.58.84.84,0,0,0,.63.22A1.14,1.14,0,0,0,28.25,5a1.8,1.8,0,0,0,.44-.38v-1Z"/><path class="cls-1" d="M30.33,2.23a1.65,1.65,0,0,1,.48-.35,1.21,1.21,0,0,1,.58-.14,1.1,1.1,0,0,1,1,.47,2.49,2.49,0,0,1,.31,1.36A2.13,2.13,0,0,1,32.3,5a1.22,1.22,0,0,1-1,.45,1.36,1.36,0,0,1-.56-.11A1.55,1.55,0,0,1,30.3,5l0,.21,0,.22V6.71H30V1.81h.23l0,.21Zm0,2.5a1.39,1.39,0,0,0,.43.3,1.18,1.18,0,0,0,.5.11.88.88,0,0,0,.79-.37,2.21,2.21,0,0,0,.25-1.2,2.26,2.26,0,0,0-.23-1.14.82.82,0,0,0-.77-.4,1.09,1.09,0,0,0-.54.14,1.61,1.61,0,0,0-.43.32V4.73Z"/><path class="cls-1" d="M34.87,5.41a1.26,1.26,0,0,1-1-.47,2.32,2.32,0,0,1-.36-1.38,2.26,2.26,0,0,1,.34-1.3,1.34,1.34,0,0,1,2.12,0,2.18,2.18,0,0,1,.37,1.3,2.2,2.2,0,0,1-.39,1.38,1.25,1.25,0,0,1-1,.47m0-3.4a.9.9,0,0,0-.82.43,2.14,2.14,0,0,0-.25,1.12A2.37,2.37,0,0,0,34,4.69a.91.91,0,0,0,.84.45.88.88,0,0,0,.82-.42,2.18,2.18,0,0,0,.24-1.16,2.13,2.13,0,0,0-.25-1.13A.91.91,0,0,0,34.87,2"/><path class="cls-1" d="M38.25,5.34H38l-.57-1.76-.58-1.77h.38l.52,1.66.53,1.67.51-1.67.52-1.66h.37l-.63,1.93-.63,1.93a1.9,1.9,0,0,1-.5.87,1,1,0,0,1-.68.24,1.23,1.23,0,0,1-.39-.07,1,1,0,0,1-.29-.17l.06-.12.06-.12h0a.92.92,0,0,0,.23.14.79.79,0,0,0,.31.08.67.67,0,0,0,.52-.22,2,2,0,0,0,.39-.8l0-.08Z"/><path class="cls-1" d="M42.46,5.34l0-.24,0-.23a1.63,1.63,0,0,1-.44.37,1.4,1.4,0,0,1-.65.17,1.1,1.1,0,0,1-.82-.31,1.12,1.12,0,0,1-.28-.74.91.91,0,0,1,.31-.72,1.32,1.32,0,0,1,.88-.27h1V3a1.16,1.16,0,0,0-.2-.77A.85.85,0,0,0,41.5,2a2.2,2.2,0,0,0-.61.08,2.35,2.35,0,0,0-.45.15l0-.13,0-.13a3,3,0,0,1,.47-.17,3,3,0,0,1,.74-.09,1.12,1.12,0,0,1,.84.3,1.3,1.3,0,0,1,.3.93V5.34h-.23Zm-.1-1.7h-.94a1.07,1.07,0,0,0-.71.2.64.64,0,0,0-.19.5.82.82,0,0,0,.2.58.87.87,0,0,0,.64.22A1.1,1.1,0,0,0,41.92,5a1.49,1.49,0,0,0,.44-.38v-1Z"/><path class="cls-1" d="M46,4.89a1.34,1.34,0,0,1-.46.38,1.3,1.3,0,0,1-.58.14,1.22,1.22,0,0,1-1-.47,2.25,2.25,0,0,1-.38-1.38,2.29,2.29,0,0,1,.35-1.3A1.29,1.29,0,0,1,45,1.74a1.91,1.91,0,0,1,.58.09A1.49,1.49,0,0,1,46,2V.37h.34v5h-.23l0-.22ZM46,2.3a1.49,1.49,0,0,0-.38-.19A1.61,1.61,0,0,0,45,2a.94.94,0,0,0-.83.43,2,2,0,0,0-.26,1.12,2.25,2.25,0,0,0,.24,1.13.87.87,0,0,0,.81.45A1.07,1.07,0,0,0,45.47,5a1.72,1.72,0,0,0,.5-.4V2.3Z"/><path class="cls-1" d="M48.56,5.41a1.26,1.26,0,0,1-1-.47,2.32,2.32,0,0,1-.37-1.38,2.19,2.19,0,0,1,.35-1.3,1.23,1.23,0,0,1,1.06-.52,1.25,1.25,0,0,1,1.06.52A2.17,2.17,0,0,1,50,3.56a2.2,2.2,0,0,1-.38,1.38,1.27,1.27,0,0,1-1,.47m0-3.4a.9.9,0,0,0-.81.43,2.14,2.14,0,0,0-.25,1.12,2.26,2.26,0,0,0,.23,1.13,1,1,0,0,0,1.66,0,2.28,2.28,0,0,0,.24-1.16,2.13,2.13,0,0,0-.25-1.13A.93.93,0,0,0,48.56,2"/><path class="cls-1" d="M52.73,2.23a1.79,1.79,0,0,1,.48-.35,1.24,1.24,0,0,1,.58-.14,1.13,1.13,0,0,1,1,.47,2.59,2.59,0,0,1,.3,1.36A2.13,2.13,0,0,1,54.7,5a1.21,1.21,0,0,1-1,.45,1.35,1.35,0,0,1-.55-.11A1.55,1.55,0,0,1,52.71,5l0,.21,0,.22V6.71h-.34V1.81h.22l0,.21Zm0,2.5a1.39,1.39,0,0,0,.43.3,1.18,1.18,0,0,0,.5.11.89.89,0,0,0,.8-.37,2.21,2.21,0,0,0,.25-1.2,2.26,2.26,0,0,0-.23-1.14.84.84,0,0,0-.78-.4,1.14,1.14,0,0,0-.54.14,2,2,0,0,0-.43.32V4.73Z"/><path class="cls-1" d="M57.27,5.41a1.24,1.24,0,0,1-1-.47,2.25,2.25,0,0,1-.37-1.38,2.26,2.26,0,0,1,.34-1.3,1.26,1.26,0,0,1,1.07-.52,1.22,1.22,0,0,1,1,.52,2.18,2.18,0,0,1,.37,1.3,2.2,2.2,0,0,1-.39,1.38,1.25,1.25,0,0,1-1,.47m0-3.4a.91.91,0,0,0-.82.43,2.14,2.14,0,0,0-.24,1.12,2.26,2.26,0,0,0,.23,1.13,1,1,0,0,0,1.65,0,2.18,2.18,0,0,0,.24-1.16,2.13,2.13,0,0,0-.25-1.13A.9.9,0,0,0,57.27,2"/><path class="cls-1" d="M61.22,2.13l-.18,0-.27,0a.91.91,0,0,0-.49.15,1.42,1.42,0,0,0-.37.31V5.34h-.34V1.81h.22l.05.22,0,.21a1.68,1.68,0,0,1,.36-.31,1,1,0,0,1,.56-.17,2.36,2.36,0,0,1,.34,0l.12,0,0,.16Z"/><path class="cls-1" d="M103.41,46.47H82.3V0h21.11Zm-20-1.07h19V1.07h-19Z"/><path class="cls-1" d="M127.92,46.47H102.34V0h25.58ZM103.41,45.4h23.43V1.07H103.41Z"/><path class="cls-1" d="M113.88,5.29v.42l.15,0,.14,0v2h.66V5.29h-1Zm.27-.42h.67V4.25h-.67v.62Z"/><path class="cls-1" d="M117.45,9.87v.42l.14,0,.15,0v2h.66V9.87h-1Zm.27-.42h.66V8.84h-.66v.61Z"/><polygon class="cls-1" points="94.28 13.03 94.32 13.03 94.36 13.02 94.34 12.97 94.31 12.92 94.3 12.98 94.28 13.03"/><polygon class="cls-1" points="91.54 13.04 91.58 13.04 91.62 13.04 91.6 12.99 91.59 12.94 91.56 12.98 91.54 13.04"/><polygon class="cls-1" points="90.62 12.9 90.66 12.91 90.7 12.91 90.69 12.86 90.68 12.81 90.64 12.85 90.62 12.9"/><polygon class="cls-1" points="96.66 12.48 96.7 12.47 96.73 12.46 96.7 12.42 96.67 12.37 96.66 12.43 96.66 12.48"/><polygon class="cls-1" points="91.34 8.45 92.07 8.68 92.79 8.92 92.64 8.68 92.47 8.45 91.91 8.45 91.34 8.45"/><path class="cls-1" d="M92.79,7.4H90.85v0l0,0,0,0,0,.06h1.78l0-.07Z"/><path class="cls-1" d="M92.71,7.66H91a.25.25,0,0,1,0,.07.36.36,0,0,1,0,.09h1.57l0-.08Z"/><path class="cls-1" d="M92.63,7.92H91.15l0,.08a.24.24,0,0,1,0,.08h1.38l0-.08Z"/><path class="cls-1" d="M92.55,8.19H91.23s0,.05,0,.08,0,.05,0,.07h1.26l0-.07Z"/><path class="cls-1" d="M91.71,8.71h-.46a.22.22,0,0,0,0,.08s0,.05,0,.08h.7l-.1-.08Z"/><path class="cls-1" d="M91.56,8.61l-.1-.08-.12-.08h-.08v.15h.3Z"/><path class="cls-1" d="M92.8,7.4v0h0V8.92l.73-.24.73-.23H93.12l0,0,0-.05h1.28s0-.06,0-.08a.19.19,0,0,1,0-.08H93l0-.06,0-.05h1.42l0-.08a.24.24,0,0,0,0-.08H93l0,0v0h1.59a.36.36,0,0,0,0-.09l0-.07H92.88v0l0-.06h1.82l.07-.09,0,0v0h-2Z"/><path class="cls-1" d="M93.14,9.77V11l.08,0,.08,0v-1l-.08-.05Z"/><path class="cls-1" d="M92.88,9.56v1.72l0-.06s0,0,0,0h0a.16.16,0,0,1,0-.07.12.12,0,0,1,.05,0V9.68L93,9.62Z"/><path class="cls-1" d="M92.62,9.63V11l.07.07.06.09h0v0l0,0V9.51l-.08.06Z"/><path class="cls-1" d="M92.36,9.83v1l.08,0,.08,0V9.71l-.08.06Z"/><path class="cls-1" d="M93.4,10.83h.08l.07,0v-.71L93.48,10,93.4,10v.87Z"/><path class="cls-1" d="M92.11,10.79l.07,0,.08,0V9.91l-.08.06-.07.06v.76Z"/><path class="cls-1" d="M92.8,8.92l-.27.1-.27.1-.09-.07L92.06,9h-.87l0,.08,0,.08a.33.33,0,0,1,0,.06l0,.07v1.17l.07.07.09.07V9.13h.1v1.5l.07,0,.08,0V9.13h.11v1.61h.15V9.13h.11v1.65H92v-.67l0,0,0,0,.45-.63Zm-.8.21h.11V9.6l-.06.16,0,.15V9.13Z"/><path class="cls-1" d="M94.47,9.13h0l0-.08,0-.08h-.89l-.1.08-.1.07-.19-.07L92.94,9l-.07,0-.08,0,.44.62.43.63v.61h.15V9.13h.11v1.64h.15V9.13h.1v1.59l.09,0,.07,0V9.13h.11v1.46l.07-.06.07-.06h0V9.37l-.06-.12-.06-.12m-.81,1,0-.15-.06-.15V9.13h.11v1Z"/><path class="cls-1" d="M93.67,8.87h.71s0-.06,0-.08a.22.22,0,0,0,0-.08h-.47l-.11.08Z"/><path class="cls-1" d="M94.24,8.45l-.11.08-.1.08h.32a.16.16,0,0,1,0-.07V8.45h-.11Z"/><path class="cls-1" d="M95.09,5.33h.13a.59.59,0,0,0,.42-.42c.06-.17,0-.33,0-.35h0a.42.42,0,0,1,0,.06s0,0,0,.05,0,.06,0,.07l0,0h0a.73.73,0,0,0,.09-.26.82.82,0,0,0,0-.26.61.61,0,0,0-.07-.14A.46.46,0,0,0,95.37,4a.84.84,0,0,0-.49-.14.8.8,0,0,0-.51.14l-.15-.12A.66.66,0,0,0,94,3.74.75.75,0,0,1,93.9,4a1.39,1.39,0,0,1-.21.21l-.07,0-.08,0v0A.85.85,0,0,0,93.83,4a.67.67,0,0,0,.1-.34h0c0-.06,0-.15,0-.25a1,1,0,0,0-.15-.28.83.83,0,0,0-.56-.21.86.86,0,0,0-.6.17.5.5,0,0,0-.1.14.75.75,0,0,0,0,.16.34.34,0,0,1,.24-.22.36.36,0,0,1,.23,0,.21.21,0,0,1,.18.14.34.34,0,0,0-.4-.07.49.49,0,0,0-.28.39h0s0,0,0,0h0s0,0,0,0a.33.33,0,0,1,0-.15.52.52,0,0,1,0-.17l.06-.18a1,1,0,0,0-.72.13.88.88,0,0,0-.35.76.83.83,0,0,0,0,.15.76.76,0,0,0,.11.16v0h0s0,0,0,0a.17.17,0,0,1-.06-.06.47.47,0,0,1-.07-.12.5.5,0,0,1,0-.13,1.91,1.91,0,0,0-.39-.09.87.87,0,0,0-.28,0,.75.75,0,0,0-.29.11.64.64,0,0,0-.21.18l-.06.08,0,.1a.52.52,0,0,0-.07.2.62.62,0,0,0,0,.24,1.27,1.27,0,0,0,.12.39.69.69,0,0,0,.25.26,1.31,1.31,0,0,0,.45.12,1.61,1.61,0,0,0,.33,0l.11,0,.11-.06h0a.43.43,0,0,0,.14-.19.77.77,0,0,0,0-.27h0l0,0s0,.06,0,.09a.59.59,0,0,1,0,.13.53.53,0,0,1,0,.12h0v0s0,0,0,0,0,0,0,0a.23.23,0,0,0,.13.06.3.3,0,0,0,.16,0h0a.09.09,0,0,1,0,.06.33.33,0,0,1-.15,0h-.08a.38.38,0,0,0,.19.15.88.88,0,0,0,.29,0h0l0,0h-.24l-.15,0a.74.74,0,0,0,.21.17A1.82,1.82,0,0,0,92.2,6s0,0-.11,0a.61.61,0,0,1-.17,0,.69.69,0,0,0,.26.45c.08.06.16,0,.16.07a.12.12,0,0,0-.09.09.18.18,0,0,0,0,.16,1.43,1.43,0,0,1,.38-.1,1,1,0,0,1,.21,0,1,1,0,0,1,.21,0,3.21,3.21,0,0,1,.39.1s0,0,0-.07a.17.17,0,0,0,0-.07c0-.07-.14-.13-.29-.15a1.12,1.12,0,0,0-.54,0s0,0,0,0h0l0,0h0A.81.81,0,0,1,93,6.42a.83.83,0,0,1,.36,0h0a.18.18,0,0,0,.21,0,.18.18,0,0,0,0-.18.2.2,0,0,0,.15,0,.17.17,0,0,0,.06-.14h0l0,0-.06,0h0l0,0A.64.64,0,0,0,94,5.81.39.39,0,0,0,94,5.6a.14.14,0,0,1-.07.06l-.09,0s0,0,0,0h.07a.63.63,0,0,0,.1-.12.66.66,0,0,0,.08-.13.73.73,0,0,1-.16-.23l-.11-.27a.16.16,0,0,0-.07-.11.14.14,0,0,0-.12-.06h-.08a.16.16,0,0,1,.16,0l.13.07a.56.56,0,0,1,0-.2l0-.05h0a.84.84,0,0,0,0,.57.89.89,0,0,0,.3.35,1,1,0,0,0,.54.11,1,1,0,0,0,.58-.22h-.09l-.09,0h-.08l0,0h0m-4.54,0a.46.46,0,0,0,.23-.12.19.19,0,0,0,.07-.2l0-.06a.11.11,0,0,0-.08,0,.15.15,0,0,0-.13,0,.22.22,0,0,0-.09.1.28.28,0,0,1,.08-.19.27.27,0,0,1,.19-.06.28.28,0,0,1,.13.07A.18.18,0,0,1,91,5a.25.25,0,0,1-.1.27.54.54,0,0,1-.34.07m.64-.18a.74.74,0,0,0,0-.36A.33.33,0,0,0,91,4.52a.46.46,0,0,0-.35.05,1.08,1.08,0,0,0-.25.18.52.52,0,0,1,.24-.29.66.66,0,0,1,.43,0,.3.3,0,0,0-.23-.19.47.47,0,0,0-.38.08.21.21,0,0,0-.1.06l-.07.06a.39.39,0,0,1,.12-.19.47.47,0,0,1,.19-.12.5.5,0,0,1,.32,0,.51.51,0,0,1,.24.13.69.69,0,0,1,.2.57.45.45,0,0,1-.15.33m1.67,1.08a.12.12,0,0,1-.14-.06.38.38,0,0,1,0-.15l.09.07s0,0,0-.07l-.2-.1c-.08-.05-.14-.11-.1-.18s.09,0,.15.07.11.11.14.06-.15-.18-.31-.25-.32-.13-.31-.22.13,0,.27.09a2.18,2.18,0,0,0,.33.16c0-.06-.2-.17-.42-.32a1.68,1.68,0,0,1-.6-.55l0,0v0h0a1.51,1.51,0,0,0,.38.38,1.71,1.71,0,0,0,.62.3c.08,0,.14.17.16.34a1,1,0,0,1,0,.49m.17.14a.06.06,0,0,1,0-.06s0-.07,0-.09,0-.22,0-.33a2.68,2.68,0,0,0,0-.3l-.08-.28a4.52,4.52,0,0,0-.22-.49,2,2,0,0,1,.22.35,2,2,0,0,1,.22.89.64.64,0,0,1-.06.31M93.27,5c.07,0,.06.12,0,.21l-.1.2.09-.08s.08,0,.1,0,0,.11-.06.2a.53.53,0,0,1-.15.17.35.35,0,0,1-.07-.44c.06-.1.16-.17.17-.24m0,1.23a.08.08,0,0,1,0-.07.21.21,0,0,1,0-.08A.2.2,0,0,1,93.28,6l.11-.09a.87.87,0,0,1,0,.11.9.9,0,0,1-.15.25m0-.3s0-.11,0-.18a.62.62,0,0,0,.1-.17c.1,0,.09.06,0,.15a.6.6,0,0,1-.17.2m.17-2.86s.07,0,.15.06a.41.41,0,0,1,.19.26.32.32,0,0,1,0,.17.09.09,0,0,1-.06,0h0a.44.44,0,0,0,0-.2.34.34,0,0,0-.07-.19l-.11-.08-.07,0M95,4.7h0V4.62a.28.28,0,0,0,0-.09s0-.07,0-.1a.49.49,0,0,0-.21-.32.28.28,0,0,0-.31.07A.59.59,0,0,1,94.65,4a.54.54,0,0,1,.5-.07A.4.4,0,0,1,95.3,4a.78.78,0,0,1,.11.18.29.29,0,0,1,0,.18.33.33,0,0,1,0,.15h0a.71.71,0,0,0,0-.14.83.83,0,0,0,0-.15l-.06-.1a.2.2,0,0,0-.09-.07l.06.1,0,.07a.47.47,0,0,1,0,.09.43.43,0,0,1,0,0,.71.71,0,0,1,0,.21.57.57,0,0,1-.09.16h0a1.29,1.29,0,0,0,.06-.25.54.54,0,0,0,0-.22v0s0,0,0,0a.49.49,0,0,0-.11-.14A.24.24,0,0,0,94.9,4l.09.09a.35.35,0,0,1,.07.12.54.54,0,0,1,0,.27.34.34,0,0,1-.08.2"/><path class="cls-1" d="M99.44,8.76c0-.39,0-.75-.09-1.09a5.37,5.37,0,0,0-.2-1,3.34,3.34,0,0,0-.27-.76.88.88,0,0,0-.56-.54.35.35,0,0,0-.3.09.41.41,0,0,0-.11.29A.65.65,0,0,0,98,6a.28.28,0,0,1,0,.22.91.91,0,0,0-.09.17c0,.07,0,.13-.07.19a.19.19,0,0,0,0,.15.39.39,0,0,1,0,.16.38.38,0,0,0-.21,0,.52.52,0,0,1-.26,0,.76.76,0,0,1-.28,0C97,7,97,7,97,7h0a.91.91,0,0,0,.31-.05.27.27,0,0,0,.17-.13.57.57,0,0,0,0-.26.32.32,0,0,0-.1-.21,1.45,1.45,0,0,0-.21.08,1,1,0,0,1-.44,0,.67.67,0,0,0-.38,0,.35.35,0,0,0-.14.23l0-.06v0a.25.25,0,0,1,.1-.15.4.4,0,0,1,.19-.07.11.11,0,0,0,0-.07.28.28,0,0,0,0-.09h-.19a.86.86,0,0,0-.28.1.41.41,0,0,0-.2.21v.14s0,0,0,0a0,0,0,0,1,0,0v0a.3.3,0,0,0,.16.15.87.87,0,0,0,.34.07h0l0,0h-.1l-.15,0a.45.45,0,0,1-.25-.12h0a0,0,0,0,0,0,0,.83.83,0,0,1-.15.11.45.45,0,0,1-.18,0,.46.46,0,0,1-.2,0,.37.37,0,0,1-.15-.11.55.55,0,0,1,0-.44A2.16,2.16,0,0,0,95.19,6c0-.22-.14-.28-.31-.27a1.25,1.25,0,0,0-.46.14,1.76,1.76,0,0,0-.34.25l-.28.3c0,.06-.09.12-.13.19a1.18,1.18,0,0,0-.11.19l.2.07A.82.82,0,0,0,94,7h.06a.56.56,0,0,0,.17,0,.35.35,0,0,0,.2-.1l0,0s.05,0,.09,0h.07a.18.18,0,0,1,.07,0l.22.17.28.22,0,0a.09.09,0,0,1,0,.06v.06a.23.23,0,0,1,0,.07s-.06.07-.12.17a1.58,1.58,0,0,0-.2.37l0,.06s0,0,0,.06a.63.63,0,0,0,0,.27.22.22,0,0,0,.17.21.14.14,0,0,0,.11,0s.11-.12.1-.32a.49.49,0,0,0,0,.13.15.15,0,0,0,.28.05.42.42,0,0,0,0-.18h0a2.44,2.44,0,0,1,0-.27c0-.09,0-.19,0-.29h0v0a.54.54,0,0,1,0,.08,3,3,0,0,0,.07.62,1.83,1.83,0,0,0,.61,1,1.15,1.15,0,0,1-.19-.13,1.67,1.67,0,0,1-.34-.41.46.46,0,0,0-.19.18.61.61,0,0,0,0,.39,1.14,1.14,0,0,0,.09.16.3.3,0,0,0,.09.1h0l0,0a.12.12,0,0,1-.08,0l0,0s0,0,0,0l0-.06,0-.05-.13-.12-.11-.12c0-.06,0-.19-.08-.29a.29.29,0,0,0-.3-.2h-.1a1.34,1.34,0,0,1-.07-.39.87.87,0,0,1,0-.17,1.71,1.71,0,0,1,.23-.6c.1-.16.19-.26.2-.29l0,0a0,0,0,0,0,0,0s0,0,0,0h0l-.29-.22-.22-.18h0l0,0h-.09l0,0a.51.51,0,0,1-.22.11.79.79,0,0,1-.2,0H94A.82.82,0,0,1,93.71,7l-.2-.08a1.32,1.32,0,0,0-.44-.13l-.22,0-.22,0a1.43,1.43,0,0,0-.45.13A1,1,0,0,1,92,7a.87.87,0,0,1-.31.07h-.07a.79.79,0,0,1-.2,0,.57.57,0,0,1-.22-.11h0l0,0h-.1l0,0h0a2.35,2.35,0,0,1-.22.18l-.29.22h0s0,0,0,0,0,0,0,0l0,0s.1.13.2.29a1.93,1.93,0,0,1,.23.6v.07a.28.28,0,0,1,0,.13s0-.09,0-.13l0-.11a.14.14,0,0,0,0-.07.16.16,0,0,0,0-.06h0a.43.43,0,0,0-.09-.1L90.62,8l-.1,0-.09,0a.71.71,0,0,1-.14-.1.5.5,0,0,1-.11-.16,1.12,1.12,0,0,0-.07-.29l-.06-.12s.06,0,.1.07a.57.57,0,0,1,.09.28,1.06,1.06,0,0,0,.19-.33,2.09,2.09,0,0,0,.12-.4.39.39,0,0,1,.3-.11,2.16,2.16,0,0,1,.31,0h.06l.06,0s0,0,0,.06l0,0h.19a.08.08,0,0,1,0,0l0,0h0A1,1,0,0,0,92,6.9l.18-.08h0a.28.28,0,0,0-.14-.1l-.16,0a.48.48,0,0,1-.16-.08.51.51,0,0,0-.16-.09h-.18a1.17,1.17,0,0,1-.38,0c-.12,0-.23,0-.36-.06a.24.24,0,0,0-.23.09,1.8,1.8,0,0,0-.11.2l-.06.08-.06.08a.41.41,0,0,1-.11.07A.34.34,0,0,0,90,7h0s0-.1,0-.16a.6.6,0,0,0-.08-.16h0s0,0,0,0v0a1.05,1.05,0,0,0-.24-.27.81.81,0,0,0-.36-.18l0,0,0,0a.1.1,0,0,1,0-.06s0,0,0,0a.38.38,0,0,1,.16,0l.17,0c.12-.06.16-.14.16-.2a.16.16,0,0,0-.1-.14l-.22-.05a.53.53,0,0,1-.16-.06A.38.38,0,0,1,89,5.41a.39.39,0,0,0-.1-.08l-.1,0h-.1l-.08,0-.06,0a.24.24,0,0,1,.11-.09.42.42,0,0,1,.16,0,.15.15,0,0,1-.08-.12A.19.19,0,0,0,88.7,5h-.07l-.09,0s0-.08,0-.14a.24.24,0,0,0-.1-.15.06.06,0,0,0-.09,0,.08.08,0,0,0,0,.07s0,0,.06.09a.37.37,0,0,1,.08.19l0,0,0,0a.93.93,0,0,0,0-.13s0-.09-.09-.11-.07,0-.09,0a.19.19,0,0,0,0,.08l.07.07a.73.73,0,0,1,.07.17l0,0,0,0a.27.27,0,0,1-.17-.1S88,5.12,88,5.12h-.08a.09.09,0,0,0,0,.09.16.16,0,0,0,.1.1.38.38,0,0,0,.13.06l0,0,0,0a.43.43,0,0,1-.18-.09s-.06-.08-.08-.08a.09.09,0,0,0-.07,0s0,0,0,.09a.28.28,0,0,0,.14.12l.14,0a.13.13,0,0,0,0,.07.15.15,0,0,0,0,.06.47.47,0,0,0-.25,0c-.08,0-.13.1-.1.19a.29.29,0,0,0,.15,0,.28.28,0,0,1,.22,0,.41.41,0,0,0,.18.15l.13.05a.15.15,0,0,1,.06.09l0,.12a1.14,1.14,0,0,0,.1.19c0,.07.09.12.13.19l.13.2.14.2s0,0,0,.05v.06a1.37,1.37,0,0,1-.27.27c-.11.09-.22.17-.28.23s-.41.34-.76.65a3.07,3.07,0,0,0-.77.86.75.75,0,0,0,0,.16.59.59,0,0,0,0,.19h-.14a.13.13,0,0,1-.11,0s0-.09,0-.14a.28.28,0,0,0,0-.18s0-.05,0-.05h-.09s-.07.07-.08.14a.35.35,0,0,0,0,.2l0,0s0,0,0,0a.07.07,0,0,1-.06,0,.19.19,0,0,1,0-.08s0,0,0,0a.15.15,0,0,0,0,.07.15.15,0,0,0,.08.08l.1,0a.08.08,0,0,1,0,.05s-.05,0-.06,0,0,.08,0,.11a.05.05,0,0,0,.05,0,.12.12,0,0,0,.1,0l.09,0s0,0,0,.06l-.08,0c.06.08.12,0,.18,0s.13-.1.19-.09.13.1.23.23a.61.61,0,0,1,.14.44,0,0,0,0,1,0,0s0,0,0,0a.71.71,0,0,1-.15.15l-.18.15c-.1.07,0,.31,0,.59a3.27,3.27,0,0,1,.15.8c0,.09,0,.12.07.17a.47.47,0,0,1,.16.24l-.14,0a.28.28,0,0,0-.11.08h0s0,0,0,0h0a.08.08,0,0,0,0,0,.13.13,0,0,0,0,.06A.2.2,0,0,0,87,13a.21.21,0,0,0,.29,0,.2.2,0,0,0,.06-.15v0h.08l.08,0,.09.05.09,0a1.45,1.45,0,0,1-.45.24,2,2,0,0,1-1.21,0,.7.7,0,0,1-.22-.13.41.41,0,0,1-.12-.45l0,0a.22.22,0,0,1,.07-.07.11.11,0,0,0,0,.08.17.17,0,0,0,.06.06l.06,0H86a.24.24,0,0,0,.24-.24.29.29,0,0,0,0-.09.18.18,0,0,0,0-.07v0h0A.25.25,0,0,0,86,12.2a.46.46,0,0,0-.2,0,.61.61,0,0,0-.21.13.49.49,0,0,0-.08.51.79.79,0,0,0-.17,0,.32.32,0,0,0-.25.09l0,0a.2.2,0,0,0,0,.09h0a.43.43,0,0,1,0,.05l0,.05.06.06.09,0,.08,0,.06,0h0s0,0,0,0a.17.17,0,0,1,.07,0,1.47,1.47,0,0,0,.29.23,1.23,1.23,0,0,0,.76.19.6.6,0,0,0,0,.17.32.32,0,0,0,.2.21h0a.19.19,0,0,0,.08,0,.11.11,0,0,0-.08-.19h0a.26.26,0,0,0,0-.07.4.4,0,0,1,0-.11,2.33,2.33,0,0,0,.39-.09,2.22,2.22,0,0,0,.75-.38l.18.05a2.15,2.15,0,0,0,.34.05,0,0,0,0,1,0,0s0,0-.11.05h-.09s-.09,0-.09.06v0a.22.22,0,0,0,.12,0v0a.15.15,0,0,0,.09.09.07.07,0,0,1,0,0s0,0,0,.06l-.06,0a.09.09,0,0,0,0,.11.17.17,0,0,0,0,.06.29.29,0,0,0,.19,0h0s0,0,0,0a.14.14,0,0,0,0,.06s0,.08.09.13h.08a.13.13,0,0,0,.13-.07l0,0h.08a.68.68,0,0,0,.22.06.43.43,0,0,0,.39-.18h0s0,0,.06,0a.55.55,0,0,0,.18.14,1.42,1.42,0,0,0,.6.14s0,.07.07.08a.3.3,0,0,0,.11,0,.2.2,0,0,0,.14,0,.26.26,0,0,0,.08-.13.87.87,0,0,0,.21,0,1,1,0,0,0,.37-.16l.07,0,.13-.07a.43.43,0,0,0,.09.21.32.32,0,0,0,.21.08.29.29,0,0,0,.22-.09.3.3,0,0,0,.08-.21.29.29,0,0,0-.25-.3s0,0-.13,0a.77.77,0,0,0-.34.12l-.12.08a.56.56,0,0,1-.15.08s0-.07,0-.16,0-.24.06-.38h-.13a2.09,2.09,0,0,1-.07.39c0,.12-.07.2-.12.21h-.08l-.08,0s0,0,0,0l0,0-.05-.05a.16.16,0,0,0-.1,0h0a.14.14,0,0,0-.1.06.15.15,0,0,0,0,.09.63.63,0,0,1-.17,0,.41.41,0,0,1-.25-.06l.13-.06a.38.38,0,0,0,.15-.12.23.23,0,0,0,0-.09c0-.06,0-.13-.18-.2a.17.17,0,0,0-.09,0c-.06,0-.11,0-.14,0s0,0,0,0a.27.27,0,0,0,.06.09s0,0,0,0,0,0-.11,0l-.06,0a.15.15,0,0,1-.09,0s0-.08,0-.19a2.17,2.17,0,0,1,.07-.35l-.09,0-.1,0s0,.07,0,.11l0,.12a.58.58,0,0,1,0,.1c0,.06,0,.12-.07.14a.53.53,0,0,1-.11-.14.6.6,0,0,1,0-.41l-.11,0-.11,0a1.47,1.47,0,0,0,0,.33,2.16,2.16,0,0,0,.21.5.59.59,0,0,1-.12.12.24.24,0,0,1-.28,0,.59.59,0,0,1-.12-.12.17.17,0,0,1,0-.24.11.11,0,0,1,.07,0,.08.08,0,0,1,.1.06.12.12,0,0,0-.08,0,.11.11,0,0,0,0,.08.14.14,0,0,0,0,.09.18.18,0,0,0,.09,0,.14.14,0,0,0,.12-.12.62.62,0,0,0,0-.12.3.3,0,0,0-.09-.15L89,13.25a.32.32,0,0,0-.2,0l.08-.13a.86.86,0,0,0,.09-.27h0a.15.15,0,0,1,0-.06l-.07,0-.07,0a.92.92,0,0,1-.07.31.17.17,0,0,1-.23.1l.09-.15.16-.28-.14,0c-.05,0-.1,0-.14-.07h0a.81.81,0,0,1,0,.17.26.26,0,0,1-.07.19.17.17,0,0,1-.08,0,.33.33,0,0,1-.25-.08l.15-.13a2.12,2.12,0,0,0,.21-.2l-.1,0-.12,0h-.09l-.11.08-.19.11h0s0,0,0,0a.41.41,0,0,1-.09-.16.44.44,0,0,1,0-.38.7.7,0,0,1,.08-.12.23.23,0,0,1,.23-.07h0a.17.17,0,0,1,.06.08l-.1,0a.11.11,0,0,0-.08.13.2.2,0,0,0,0,.08.18.18,0,0,0,.17.07.21.21,0,0,0,.12-.05.28.28,0,0,0,.08-.3.37.37,0,0,0,0-.09.18.18,0,0,0-.15-.1.14.14,0,0,0,0-.06s0-.06,0-.09l0,0a.26.26,0,0,0-.15.06.07.07,0,0,1,0,0s-.08,0-.17,0a.09.09,0,0,0-.06,0,.13.13,0,0,0-.11.05l0,0a.8.8,0,0,0,0,.11v0a.47.47,0,0,1,0,.14l0,.06a1.57,1.57,0,0,0,0,.16l-.08,0-.09,0a.74.74,0,0,1-.08-.31,2.05,2.05,0,0,0-.1-.41.4.4,0,0,1,0-.17c0-.09,0-.2,0-.32a1.22,1.22,0,0,0,.67-.39,1.3,1.3,0,0,0,.25-.45,1.22,1.22,0,0,0,0-.5c0-.14-.06-.26-.06-.31h0l0,.09,0,.08a1.63,1.63,0,0,0,.39,0,1.38,1.38,0,0,0,.26-.07h.06l0,0,0,0h0A1.45,1.45,0,0,0,89.43,9a2.64,2.64,0,0,0,.26-.4.86.86,0,0,1-.15-.05.34.34,0,0,1-.16-.12l.22,0a.85.85,0,0,0,.23,0,1.07,1.07,0,0,0,.31-.06.76.76,0,0,1,.34,0,.18.18,0,0,0,0,.08.41.41,0,0,0,.17.12,1.48,1.48,0,0,0,0,.21,1.05,1.05,0,0,0,0,.19s0,0,0,0h0a.66.66,0,0,0-.09.09.21.21,0,0,0-.06.19.14.14,0,0,1,0,.06s0,0,0,.05h0s0,0,0,0a.35.35,0,0,0-.06.09l-.07.14c0,.06,0,.12,0,.13h0a1.6,1.6,0,0,0,0,.38.82.82,0,0,0,.16.41h0a.7.7,0,0,0,.24.26,1.37,1.37,0,0,0,.81.24h0a1.59,1.59,0,0,1,.43.06.85.85,0,0,1,.55.4l0,.06a.09.09,0,0,0,.16,0l0,0a.88.88,0,0,1,.56-.41,1.55,1.55,0,0,1,.43-.06h0a1.37,1.37,0,0,0,.81-.24,1,1,0,0,0,.25-.26h0a.67.67,0,0,0,.1-.21.83.83,0,0,0,.06-.21.33.33,0,0,0,.12-.25,1.36,1.36,0,0,0,0-.24,1.26,1.26,0,0,0,.1.15.38.38,0,0,0,.21.13.88.88,0,0,0,0,.28.23.23,0,0,0,.16.19s0,0,.06-.05a.13.13,0,0,0,0-.09,1.62,1.62,0,0,1,.08.51c0,.13,0,.2.05.22s.11-.07.13-.13a.87.87,0,0,0,0-.14.56.56,0,0,1,0,.08.46.46,0,0,1,0,.14v.19a.1.1,0,0,0,0,.1c.09,0,.12-.13.14-.26s0-.27.11-.24a.8.8,0,0,0,0,.31.19.19,0,0,0,.1.14.76.76,0,0,1,0,.16c0,.05,0,.08-.05.08a.82.82,0,0,1-.41,0,.71.71,0,0,0-.38-.05h0a1,1,0,0,0-.54-.12c-.14,0-.21.05-.23,0a.1.1,0,0,0-.14,0s0,.07-.08.06a.22.22,0,0,0-.27,0c-.07,0-.12.1-.15.1s-.07,0-.12,0-.09,0-.15.18-.1.1-.17.13l-.16,0c-.06,0-.09,0-.11,0a.06.06,0,0,1,0,0s0,0,0,0l0,0s0,0,0,0l0,0-.06,0h0a.15.15,0,0,0-.1,0,.21.21,0,0,0,0,.1.07.07,0,0,0,0,0,.08.08,0,0,0,0,.05h0s0,0,0,0a.09.09,0,0,1,.07,0,.08.08,0,0,1,0,.07h0a.23.23,0,0,1-.08.17.58.58,0,0,1-.1.08.12.12,0,0,1-.15,0,.21.21,0,0,1-.08-.06A.21.21,0,0,0,93,12l0,0a.12.12,0,0,0-.08.05s0,0,0,0l0,0a.19.19,0,0,0-.09-.05l0,0a.14.14,0,0,0-.09,0l-.08.06a.14.14,0,0,1-.16,0,.38.38,0,0,1-.09-.08.24.24,0,0,1-.09-.17h0a.08.08,0,0,1,0-.07.1.1,0,0,1,.08,0s0,0,0,0h0s0,0,0-.05a.07.07,0,0,0,0,0,.14.14,0,0,0,0-.1.15.15,0,0,0-.1,0h0l0,0s0,0,0,0l0,0,0,0a.08.08,0,0,1,0,0,.06.06,0,0,1,0,0,.1.1,0,0,1-.1,0,.66.66,0,0,1-.16,0,.31.31,0,0,1-.18-.13c0-.14-.11-.18-.15-.18s-.09,0-.12,0-.07-.06-.14-.1a.24.24,0,0,0-.28,0s0,0-.08-.06-.07,0-.14,0-.07,0-.18,0a.85.85,0,0,0-.43,0s0,0-.08-.05l-.09,0a.24.24,0,0,1-.1-.05l-.08,0a.54.54,0,0,0-.19,0,1.2,1.2,0,0,1-.19,0l-.08,0-.07,0a1.88,1.88,0,0,1-.23-.16,1.11,1.11,0,0,1-.19-.18l0-.05,0,0a.7.7,0,0,1-.06-.09.66.66,0,0,1,0-.11.71.71,0,0,1,0-.29l.06-.29a.49.49,0,0,0,0-.11.17.17,0,0,0,0-.07.67.67,0,0,1-.25,0,1,1,0,0,1-.32,0,1.12,1.12,0,0,1,.05.31,1.31,1.31,0,0,1,0,.28.63.63,0,0,1,.11.12.37.37,0,0,1,0,.11.38.38,0,0,1,0,.15.21.21,0,0,0,0,.13,1.33,1.33,0,0,0,.17.16l.2.13.3.23a2.68,2.68,0,0,0,.32.22l.09,0a.14.14,0,0,1,.09,0h0l0,0,0,0,.08.06a2.07,2.07,0,0,1-.25.15l-.24.14-.1.06s-.08.07,0,.07h.08s.09,0,.09,0l0,0-.13,0,.37.13.37.11a2.1,2.1,0,0,1,.27-.24,1.22,1.22,0,0,1,.29-.17l.16,0a.37.37,0,0,0,.23-.18s0,0,.11,0a.35.35,0,0,0,.29,0s0,0,0,0a.24.24,0,0,0,.08.06l0,0a.1.1,0,0,0,0,.11s0,0-.11,0a.24.24,0,0,0-.16.09,1.62,1.62,0,0,1-.29.07,1.58,1.58,0,0,0-.57.3l.11,0,.11,0a.94.94,0,0,1,.22-.12.71.71,0,0,1,.26,0l.13,0a.47.47,0,0,1,.21.27,1.81,1.81,0,0,1,.23,0l.23,0h0a.5.5,0,0,0,.13-.09.1.1,0,0,0,0-.16,0,0,0,0,0,0,0s-.06,0-.1,0h0s0,0,0,0v0a.09.09,0,0,0,0-.06v0s0,0,0,0h.15a.13.13,0,0,0,.09,0,.14.14,0,0,0,0-.1.14.14,0,0,0,0-.11.11.11,0,0,0-.09-.05h0s0,0,0,0,0,0,0,0a.05.05,0,0,1,0,0s0,0,0,0-.05-.06,0-.11a.11.11,0,0,1,.11-.09l.06,0a.26.26,0,0,1,.13.09l.12.17a.73.73,0,0,0,.26.21s0,0,0,.06a.12.12,0,0,0,.08.09l0,0s0,0,.1,0l0,0,0,.07h.64a.21.21,0,0,1,0-.07.06.06,0,0,1,0,0c.06,0,.09,0,.1,0s0,0,0,0a.1.1,0,0,0,.08-.09.11.11,0,0,0,0-.06.68.68,0,0,0,.27-.21,1.42,1.42,0,0,0,.13-.17.26.26,0,0,1,.13-.09l.06,0c.06,0,.09,0,.11.09s0,.1-.06.11,0,0,0,0a.05.05,0,0,1,0,0s0,0,0,0v0h0a.12.12,0,0,0-.1.05.14.14,0,0,0,0,.11.21.21,0,0,0,0,.1.18.18,0,0,0,.09,0h.15s0,0,0,0v0l0,.06a0,0,0,0,1,0,0s0,0,0,0h0s-.07,0-.1,0a0,0,0,0,0,0,0,.11.11,0,0,0,0,.16.4.4,0,0,0,.14.09h0l.23,0,.23,0a.47.47,0,0,1,.21-.27l.13,0a.71.71,0,0,1,.26,0,.94.94,0,0,1,.22.12l.11,0,.12,0A1.54,1.54,0,0,0,95,12a1.62,1.62,0,0,1-.29-.07.24.24,0,0,0-.16-.09c-.06,0-.12,0-.11,0a.1.1,0,0,0,0-.11l0,0,.09-.06s0,0,.05,0a.33.33,0,0,0,.28,0c.06,0,.1-.06.12,0a.35.35,0,0,0,.22.18l.16,0a1.52,1.52,0,0,1,.3.17,3,3,0,0,1,.26.24l.34-.1.34-.12h0v0h0l0,0v0l-.1-.13-.08-.09h0a.66.66,0,0,1,.1-.11.11.11,0,0,1,.18,0s0,0,0,0a.11.11,0,0,1-.1,0l.07.11a1,1,0,0,1,.08.22h0l.07,0h.07a.74.74,0,0,0-.1-.16s0-.07,0-.09h.07a.09.09,0,0,0,.09-.05.12.12,0,0,0,0-.07.59.59,0,0,0,0-.14l.1,0H97a.2.2,0,0,0,.17-.15.32.32,0,0,0,0-.21l.07-.05.06,0a.37.37,0,0,0,.18.14c.08,0,.14,0,.13-.16a1.46,1.46,0,0,0,.07.19.18.18,0,0,0,.16.08c.06,0,.07-.07.07-.12s0-.1,0-.1,0,.1.07.15a.14.14,0,0,0,.18.07s0,0,.06,0a.12.12,0,0,0,0-.09,4.62,4.62,0,0,0-.3-.81,4.58,4.58,0,0,1-.35-1h0a.15.15,0,0,1-.06-.09V9.15h0a.23.23,0,0,1-.11-.07.38.38,0,0,1-.09-.22.34.34,0,0,1,.05-.2.22.22,0,0,1,0-.07h0v0a.85.85,0,0,0,0,.22.26.26,0,0,0,.07.19l0,0h.06L97.64,9l0,0h0a.33.33,0,0,0,0,.17.18.18,0,0,0,0,.13.1.1,0,0,0,0,0h.06A.35.35,0,0,0,98,9.09a2.51,2.51,0,0,0,.1-.26c.06,0,0,.18,0,.37s0,.39.06.46a.15.15,0,0,0,.12-.07c0-.05,0-.09.07-.14a.81.81,0,0,1-.07.38c0,.14-.06.27,0,.32s.12-.07.15-.15,0-.15,0-.13a1.69,1.69,0,0,1-.08.62c0,.15-.08.23,0,.27s.13,0,.16-.15,0-.19,0-.17a1.32,1.32,0,0,1-.13.61c-.06.13-.1.2,0,.24s.13,0,.18-.11.06-.13.06-.1a1.28,1.28,0,0,1-.12.55c0,.12-.09.2,0,.28s.16,0,.24-.09.14-.2.15-.15a2,2,0,0,1-.11.41c0,.18-.09.34,0,.36a.12.12,0,0,0,.15-.08.73.73,0,0,0,.06-.14,10.62,10.62,0,0,0,.38-2.11,8.43,8.43,0,0,0,0-1.35M95.05,6h0a.61.61,0,0,0-.24,0,.77.77,0,0,0-.26.07.61.61,0,0,0-.15.12l-.08.07s0-.07.13-.16a.74.74,0,0,1,.41-.18.27.27,0,0,1,.19,0s0,.06,0,.07m.75,1a.64.64,0,0,1-.1.13.3.3,0,0,1-.13.09.41.41,0,0,1-.27-.05.44.44,0,0,1-.13-.09s0,0,.1,0a.73.73,0,0,0,.23,0,.44.44,0,0,0,.16-.06L95.79,7h0m-8.32,5.47h0l0,0,0,0,0,0h0l0,0,0,0h0l0,0,0,0s0,0,0,.07l0,.07a0,0,0,0,1,0,0h-.1a.14.14,0,0,1,0-.08.37.37,0,0,1,0-.09.31.31,0,0,0,0-.08.2.2,0,0,0-.08-.08c.06,0,.13,0,.2,0l.11.1m1.06-6.51a.12.12,0,0,0,.16,0s0-.08.07-.06a.11.11,0,0,1,0,.15.14.14,0,0,1-.18,0m.22-.18a.29.29,0,0,1-.1,0,.11.11,0,0,0-.09,0l0,0a.13.13,0,0,0,0,.11s0,0,0,.06,0,0-.06,0a.26.26,0,0,1,.07-.24.64.64,0,0,1,.15-.13.31.31,0,0,1,.19,0,.71.71,0,0,0,.19.06h.24c.07,0,.1,0,.11.07s0,.07,0,.08a.22.22,0,0,1-.16,0A.28.28,0,0,0,89,5.72a.25.25,0,0,0-.12,0l-.12,0m.59.93-.29-.1a.38.38,0,0,1-.2-.15c.14,0,.28,0,.4,0a.8.8,0,0,1,.32.09h0a.64.64,0,0,1,.13.12.65.65,0,0,1,.13.25,2.33,2.33,0,0,0-.26-.16l-.24-.09m1.4,1.65s0-.05-.09-.11a.25.25,0,0,0-.26-.06.33.33,0,0,1-.21,0l-.16,0a.59.59,0,0,1,.52-.06.28.28,0,0,1,.2.25m4.16.61H95a.14.14,0,0,1,0,.05.51.51,0,0,1,0,.1l0,.08a.73.73,0,0,0,.05.09.07.07,0,0,1,0,.07.1.1,0,0,1-.09,0h0A.31.31,0,0,1,95,9.26a.32.32,0,0,1,0-.22h-.15l0,0,0,0a.11.11,0,0,1,0-.08L94.81,9l0,0,0,0m-4.11.55h0v0s0,0,0,0h0v0h0l0,0h-.18v0h0a.14.14,0,0,1,0-.06l.05-.07s0,0,0-.06,0,0,0-.05h.06s0,0,0,0a.13.13,0,0,1,0-.11.24.24,0,0,1,.06-.15.26.26,0,0,0,0-.24c0-.09,0-.16,0-.18a.19.19,0,0,1,0,.09s0,.08,0,.14h0v.08h0v0h0v.06h0v0h0v.08h0v0h0v0h0s0,0,0,0v0h0m3.92.91a.83.83,0,0,1-.23.24,1.17,1.17,0,0,1-.71.21,1.46,1.46,0,0,0-.34,0,.68.68,0,0,0-.43.31h0a.45.45,0,0,0-.06.09.41.41,0,0,0-.06.11,0,0,0,0,1,0,0h0s0,0,0,0l-.07-.11,0-.09h0a.7.7,0,0,0-.44-.31,1.46,1.46,0,0,0-.34,0,1.17,1.17,0,0,1-.71-.21A.83.83,0,0,1,91,10.4a1,1,0,0,1-.14-.71A1.41,1.41,0,0,1,91,9.34a1.89,1.89,0,0,0,.23-.59,1.72,1.72,0,0,0-.16-1,1.76,1.76,0,0,0-.19-.3.15.15,0,0,1,0-.06V7.39a.14.14,0,0,1,0-.06l0,0,.15-.1.15-.09h.08l0,0a.66.66,0,0,0,.15.09.44.44,0,0,0,.25.06h.11L92,7.2l.1,0,.09,0,.07,0h0A1.41,1.41,0,0,1,92.62,7l.23,0,.22,0a1.46,1.46,0,0,1,.39.11h0l.07,0,.09,0,.11,0,.18.06H94a.49.49,0,0,0,.25-.06.56.56,0,0,0,.14-.09l0,0h.06l0,0a.85.85,0,0,1,.15.09l.16.11h0a.14.14,0,0,1,0,.06v.05a.16.16,0,0,0,0,.06,1.54,1.54,0,0,0-.2.3,1.56,1.56,0,0,0-.17.66,1.16,1.16,0,0,0,0,.29,1.82,1.82,0,0,0,.22.59,1.31,1.31,0,0,1,.12.36,1,1,0,0,1-.14.7m.47-.41H95v0s0,0,0-.05h0v0h.07v0h0V9.63a.49.49,0,0,1,0-.15h.07v.12h0v.1a.2.2,0,0,1,0,.11.3.3,0,0,1,0,.1m1.23.25A.68.68,0,0,1,96,10.1c-.09-.08-.14-.16-.14-.15s0,0,.09.06a.58.58,0,0,0,.15.11.49.49,0,0,0,.27,0,.4.4,0,0,0,.23-.09h0a.07.07,0,0,1,0,.08.36.36,0,0,1-.19.11m-6.39,1h-.2a.08.08,0,0,0,0,0l0,0h.08s0,0,0,.05l-.06,0a.09.09,0,0,1-.08-.05.15.15,0,0,1,0-.07h0a.35.35,0,0,0-.11,0l-.12,0c0-.07.11-.08.22-.08l.21,0H90l.07,0h0m6.24.37h0a.36.36,0,0,1-.15-.06L96,11.55l-.07,0h-.09a.17.17,0,0,0-.08.06l-.06.07s0,0,0,0v0h0v0h0v0h0a0,0,0,0,0,0,0h0l.06,0h.07l.09,0,.08.05a.28.28,0,0,0,.11,0l.13,0,0,0,0,.06M97.79,7l-.11.07a.33.33,0,0,1-.13,0,.31.31,0,0,1-.19,0,.24.24,0,0,1-.14-.1.22.22,0,0,1,.16,0,.51.51,0,0,0,.18,0h.14l0,0,.06,0s0,0,0,0l0,0m1.35,4c0,.08,0,.21-.06.31l0,.18a23.19,23.19,0,0,0,.17-2.8c0-.51-.06-.69-.09-.68s0,.09-.08.17-.09.12-.16.07,0-.22.09-.43A.76.76,0,0,0,99,7.19s0,0-.07,0a.08.08,0,0,1-.09,0c-.1,0-.07-.18,0-.33s.11-.29.08-.32-.07,0-.11-.08a.22.22,0,0,1-.09-.19.51.51,0,0,1,0-.13.17.17,0,0,0,0-.11s0,0-.06,0,0,0,0,0a.2.2,0,0,1,0-.16.32.32,0,0,0,0-.14s0,0-.07,0a.08.08,0,0,1-.08,0s0-.06,0-.08,0-.07,0-.09a.24.24,0,0,0-.14.09.18.18,0,0,0-.06.17.24.24,0,0,0,.06.11.21.21,0,0,1,0,.11.22.22,0,0,1,0,.11l-.06.1a.29.29,0,0,0,0,.3c0,.07.08.11.07.16a.11.11,0,0,1-.07.06H98A.23.23,0,0,1,98,6.7a.61.61,0,0,1,0-.24.44.44,0,0,1,.11-.2c0-.06.09-.12.09-.15a.27.27,0,0,0,0-.13.33.33,0,0,1,0-.14.32.32,0,0,1,.06-.22.19.19,0,0,1,.2-.07.27.27,0,0,1,.13.07.53.53,0,0,1,.1.12l0,0,0,0a1.89,1.89,0,0,1,.24.45,3.27,3.27,0,0,1,.17.53,7.93,7.93,0,0,1,.26,1.82A11.06,11.06,0,0,1,99.14,11"/><path class="cls-1" d="M97,12.05l-.06,0h-.14a9.75,9.75,0,0,1-1.13.35,11.42,11.42,0,0,1-2.79.33,11.35,11.35,0,0,1-2.79-.33A10.32,10.32,0,0,1,88.93,12h-.14l-.05,0-.24.19-.24.2h0a1.2,1.2,0,0,1,.2,0l.1,0a8.78,8.78,0,0,0,2,.61,13.62,13.62,0,0,0,2.28.2,13.82,13.82,0,0,0,2.28-.2,8.7,8.7,0,0,0,2-.61l.1,0a1.2,1.2,0,0,1,.2,0h0l-.25-.2Zm-4.58.72h.09l-.06,0-.05,0h0l0,0Zm-3.21-.38v0l0,0H89v0l0,0h0v0h0v0l-.09,0-.09,0h0v0h0v0l0-.09,0-.1s0,0,0,0h0v0h0l.06,0,.07,0h.07l0,0s0,0,0,0,0,0,0,0v0a0,0,0,0,1,0,0m.39.21,0,.06,0,0-.07,0h-.08l0,0,0,0s0,0,0,0l0,0v-.05a.06.06,0,0,1,0,0l0,0,0,0,0,0h.14l.07,0a.08.08,0,0,1,0,.05.14.14,0,0,1,0,.07.2.2,0,0,1,0,.07m.34.17v0a0,0,0,0,1,0,0h0v0l0,0h0v0a.64.64,0,0,1,0-.07,0,0,0,0,0,0,0v0h0v.08h0v0h0v0h0l-.09,0-.09,0h0v0h0v0l0-.1,0-.1v0h0v0h0l.06,0h.19l0,0h0a0,0,0,0,1,0,0v0l0,.05h-.06a0,0,0,0,1,0,0l0,.06m.55.22-.15,0-.15,0v0h0v0l0-.1,0-.1h0v0h0v0l.09,0,.08,0v0h0v0l0,.1,0,.09v0h.11l0,0a0,0,0,0,0,0,0h0V13Zm.37.07-.09,0h-.07v0h0v0h-.09v0H90.5v0h0s0,0,0,0l.08-.12.07-.13h0l0,.14,0,.14s0,0,0,0v0h0Zm.56.08h-.1l0,0a.11.11,0,0,1,0-.06l0,0v0h0v.1h0v0h-.09l-.09,0h0v0h0s0,0,0,0v-.22h0a0,0,0,0,0,0,0h0v0h.25l0,0h0v.07a.05.05,0,0,1,0,0,.05.05,0,0,1,0,0l0,0,0,0,0,0,0,0h0v0Zm.37,0H91.6v0h0v0h-.09v0h-.11v0h0l0,0,.06-.13.07-.12h0l0,.13,0,.14a.08.08,0,0,1,0,0h0v0Zm.36-.29L92,13l-.1.14h.14v0h0s0,0,0,0h0v.11H92l-.15,0h0l.11-.14.1-.13H91.9l0,0s0,0,0,0h0v-.09h.28v0Zm.4.29a.09.09,0,0,1-.06,0l-.08,0,0,0h0s0,0,0,0l0,0a.11.11,0,0,1,0-.05V13l0,0s0,0,0,0l0,0,0,0h.05l.08,0,.06,0,0,.06a.15.15,0,0,1,0,.07.17.17,0,0,1,0,.07l0,0m.49-.27h0a0,0,0,0,1,0,0v.26h0l-.11-.12-.1-.13v.21h0v0h-.13v0h0V13a.08.08,0,0,0,0-.05h.08l.09.1.09.1v-.16l0,0H93Zm.56.26-.06,0h-.13l0,0s0,0,0,0l0,0,0-.05V13l0,0,0,0a.05.05,0,0,1,0,0l0,0h.12l.06,0,0,.06a.15.15,0,0,1,0,.07.17.17,0,0,1,0,.07s0,0,0,.06m.28,0v0h0V12.9h0v0H94v.24h.09l0,0a0,0,0,0,0,0,0s0,0,0,0h0v.12H94Zm.52-.06h-.07v0H94.2v0h0v0l0-.14,0-.14h0l.06.13.07.13,0,0h0v0h-.16Zm.57-.33s0,0,0,0v0h-.11v.12h0v0h0v.11h0v0h-.06V13h0v0h0v0h-.15v-.12l0-.1v0h0v0l.14,0,.14,0v.09h0Zm.39-.09v.11a.08.08,0,0,1,0,0v.05s0,0,0,0l0,0,0,0,0,0h-.16l0,0s0,0,0,0v0a0,0,0,0,0,0,0v-.14H95l.09,0,.09,0h0v0h0v0l0,.07v.06a73806138536.86,73806138536.86,0,0,1,0,.06h0l0,0h.1v-.08a0,0,0,0,1,0,0v-.11l0,0h0l0,0h.07v0h0v0m.15.23h0v0l0-.09,0-.1v0h0v0h0l.14,0,.15,0v.08h0s0,0,0,0v0h-.12l0,.05v.07h.06v0h0l0,.06v0h0v0h-.08l0,.05v.06h.11v-.07h0v.11l-.15,0Zm.63-.16,0,0a.12.12,0,0,1,0,0l0,0,0,0h0v.08s0,0,0,0h0v0l-.09,0-.09,0h0v0l0-.1,0-.1v0h0v0h.06l.07,0h.17l0,0v0a0,0,0,0,1,0,.05l0,.05,0,0,0,0,0,0,0,0h0l0,0Zm.15,0h0l0-.17,0-.17h-.09l0,0v.06h0v-.08l.13-.05.15,0h0l0,.16,0,.17h.11s0,0,0,0h0v0h0v.1l-.15,0Zm.51-.18h0v0h0v0h0l-.05,0h0v0h0l0,0,0,0h0l0,0s0,0,0-.05v-.28h0l.1.11.1.1a0,0,0,0,0,0,0h0v0h0l-.07,0Z"/><path class="cls-1" d="M91.36,7.29l-.11-.06-.08-.05-.08.05-.1.06h.37Z"/><path class="cls-1" d="M92.21,7.21l-.07,0-.08,0h1.47l-.08,0-.07,0h0l-.1,0-.1,0h-.73l-.1,0-.1,0h0"/><path class="cls-1" d="M94.49,7.18h0l-.06.05-.1.06h.32l-.08,0s0,0-.06-.06h0"/><path class="cls-1" d="M91,10.26v-.8a1.21,1.21,0,0,0-.08.34.85.85,0,0,0,.08.46"/><path class="cls-1" d="M89.05,12.26l0,.07,0,.06h.07l0,0v0a0,0,0,0,0,0,0h0s0,0,0,0h0l0,0"/><path class="cls-1" d="M89.44,12.4h-.07l0,0,0,.06a.15.15,0,0,0,0,.06s0,0,0,0,0,0,0,0l0,0h0s0,0,0,0,0,0,0,0a.14.14,0,0,1,0-.06.2.2,0,0,0,0-.07,0,0,0,0,0,0,0s0,0,0,0l0,0"/><path class="cls-1" d="M89.82,12.52h0l0,.07v.06h.08s0,0,0,0v-.07l0,0h0"/><path class="cls-1" d="M96,12.52h-.07v.06l0,.06H96v0a0,0,0,0,1,0,0l0,0"/><path class="cls-1" d="M91.22,12.81h0v.12h.07v0h0v-.05l0,0,0,0h0"/><path class="cls-1" d="M92.4,12.9h0s0,0,0,0a.05.05,0,0,0,0,0,.13.13,0,0,0,0,.06v.07l0,.05,0,0h.08l0,0s0,0,0,0,0,0,0-.07a.13.13,0,0,0,0-.06.07.07,0,0,0,0-.05l0,0h0"/><path class="cls-1" d="M93.43,12.9h0l0,0s0,0,0,0a.13.13,0,0,0,0,.06s0,.05,0,.07a.08.08,0,0,0,0,.05l0,0h.08l0,0,0-.05V13s0,0,0-.06,0,0,0-.05,0,0,0,0h0"/><path class="cls-1" d="M94.69,9.56v.71a.91.91,0,0,0,.07-.41.83.83,0,0,0-.07-.3"/><path class="cls-1" d="M96.05,5.73s0,0,0-.06a.06.06,0,0,1,.06,0,.43.43,0,0,1,.14,0,.21.21,0,0,1,.08.11,1.76,1.76,0,0,0,0,.19c0,.07.07.13.21.15v0a.2.2,0,0,1,0,.07s0,0,0,.07l0,.08h0a3,3,0,0,0,.46,0,.36.36,0,0,0,.24-.11l0,0a.36.36,0,0,0,.07-.1.8.8,0,0,0,.08-.28.62.62,0,0,0,0-.24v0l0,0v0a.82.82,0,0,0-.22-.25,1.25,1.25,0,0,0-.36-.2h0a.86.86,0,0,1,.35.15.65.65,0,0,1,.26.29.35.35,0,0,0,.09-.11.42.42,0,0,0,0-.15.39.39,0,0,1,0-.09.55.55,0,0,1,0-.17.07.07,0,0,0,0-.05s0,0,0,0h0l0,0a.09.09,0,0,1-.1.05s0-.05,0-.11a0,0,0,0,0,0,0,0,0,0,0,0,0,0h0a.08.08,0,0,0,0,0s-.07.06-.09,0,0-.05,0-.1a.11.11,0,0,0,0,0l0,0h0a.08.08,0,0,0,0,0s-.06.06-.09,0,0,0,0-.11v0l0,0h0a0,0,0,0,0,0,0l-.06.1s0,0,0,.06a1.38,1.38,0,0,1,.34.12.88.88,0,0,1,.28.22l0,0,0,0a0,0,0,0,1,0,0h0a.08.08,0,0,0,0,0l0,0A1.35,1.35,0,0,0,97,4.85a.77.77,0,0,0-.29-.1.09.09,0,0,0-.09.1.81.81,0,0,0,0,.15.29.29,0,0,0-.37.25.25.25,0,0,0,0,.08l0,.09h0l0,0a.11.11,0,0,1,0,0,.43.43,0,0,1,0-.05.09.09,0,0,1,0,0,.44.44,0,0,0-.22.07.2.2,0,0,0-.09.18.21.21,0,0,0,.07.14.29.29,0,0,0,.08.08m.59-.24s0,0,.07,0a.11.11,0,0,0,.16.06.15.15,0,0,1-.19,0,.12.12,0,0,1,0-.15m0-.11.11-.1a.08.08,0,0,1,.12,0,.18.18,0,0,1,.07.05l.08.06.08.06,0,.06s0,.08,0,.11-.07,0-.12,0a.82.82,0,0,0-.11-.17.12.12,0,0,0-.16,0,.87.87,0,0,0-.14.08s-.06,0-.07,0,0,0,0,0l.07,0m-.47,0s-.05,0-.07.07a.12.12,0,0,0-.06.08.09.09,0,0,1,0-.13s.09-.06.12,0"/><path class="cls-1" d="M100.61,12.92a.35.35,0,0,0-.26-.09.79.79,0,0,0-.17,0,.45.45,0,0,0-.07-.5.64.64,0,0,0-.21-.14.47.47,0,0,0-.2,0,.22.22,0,0,0-.14.05h0l0,.08a.29.29,0,0,0,0,.09.28.28,0,0,0,.07.17.26.26,0,0,0,.17.07h.07l.07,0a.1.1,0,0,0,0-.06.2.2,0,0,0,0-.08.46.46,0,0,1,.07.07l0,0a.4.4,0,0,1-.12.44.63.63,0,0,1-.22.14,2.07,2.07,0,0,1-1.22,0A1.59,1.59,0,0,1,98,13l.09-.06.09,0a.16.16,0,0,1,.09,0h.07v0a.21.21,0,0,0,.21.21.22.22,0,0,0,.14-.06.2.2,0,0,0,.06-.15v0l0-.05h0v0h0a.31.31,0,0,0-.31-.11,1.45,1.45,0,0,0-.23,0,.78.78,0,0,0,.06-.43.52.52,0,0,0,0-.17.35.35,0,0,1-.06-.14v0a.28.28,0,0,0,0-.11l0,0a.13.13,0,0,0-.17,0,.25.25,0,0,1-.16,0s0,0,0,0a.31.31,0,0,0-.16-.06l0,0s0,.06,0,.09a.25.25,0,0,0,0,.06.16.16,0,0,0-.15.1l0,.09a.33.33,0,0,0,.08.3.35.35,0,0,0,.13.05.15.15,0,0,0,.16-.07.17.17,0,0,0,0-.07.11.11,0,0,0-.08-.14l-.1,0a.14.14,0,0,1,.06-.07.06.06,0,0,1,0,0,.26.26,0,0,1,.24.08.41.41,0,0,1,.07.12.43.43,0,0,1,.05.37.5.5,0,0,1-.1.17s0,0,0,0h0l-.2-.11-.1-.08h-.09l-.13,0-.1,0,.21.2.15.13a.31.31,0,0,1-.24.08.25.25,0,0,1-.09,0,.32.32,0,0,1-.07-.19c0-.07,0-.13,0-.17h0l-.14.06-.15.06.17.28a1.23,1.23,0,0,1,.08.15c-.11,0-.18,0-.23-.11a.8.8,0,0,1-.06-.3l-.07,0-.07,0s0,0,0,.06h0a.68.68,0,0,0,.1.27l.07.13a.28.28,0,0,0-.19,0,.26.26,0,0,0-.08.05.4.4,0,0,0-.09.15.24.24,0,0,0,0,.12.11.11,0,0,0,0,.08.12.12,0,0,0,.09,0,.11.11,0,0,0,.08,0,.12.12,0,0,0,0-.09.11.11,0,0,0,0-.08.12.12,0,0,0-.08,0c0-.07.07-.07.11-.06a.11.11,0,0,1,.07,0,.16.16,0,0,1,0,.24.59.59,0,0,1-.12.12.22.22,0,0,1-.27,0,.51.51,0,0,1-.13-.12,1.79,1.79,0,0,0,.21-.5.79.79,0,0,0,0-.32l-.11,0-.11,0a.52.52,0,0,1,0,.4.5.5,0,0,1-.11.15.23.23,0,0,1-.06-.14l0-.09,0-.13s0-.07,0-.11L96,13l-.1,0a2.21,2.21,0,0,1,.08.35c0,.11,0,.19,0,.19a.11.11,0,0,1-.09,0l-.06,0c-.09,0-.11,0-.11,0l0,0s.06-.07.06-.09,0,0,0,0-.08-.06-.13-.05l-.1,0a.35.35,0,0,0-.18.2.15.15,0,0,0,0,.09s.08.09.15.12a.53.53,0,0,0,.13.06.46.46,0,0,1-.26.07l-.17,0a.15.15,0,0,0,0-.09.16.16,0,0,0-.08-.06h0a.16.16,0,0,0-.1,0l-.06.05,0,0s0,0,0,0l-.07,0h-.08s-.09-.09-.13-.21a3.45,3.45,0,0,1-.07-.39h-.12c0,.14,0,.28.06.38l0,.16a.57.57,0,0,1-.16-.08l-.11-.08a1,1,0,0,0-.34-.12.31.31,0,0,0-.14,0,.3.3,0,0,0-.24.3.32.32,0,0,0,.08.21.29.29,0,0,0,.21.09.27.27,0,0,0,.21-.09.29.29,0,0,0,.09-.2l.14.07.06,0a1.2,1.2,0,0,0,.37.17l.22,0a.24.24,0,0,0,.07.13.22.22,0,0,0,.14,0,.35.35,0,0,0,.11,0,.16.16,0,0,0,.07-.09,1.52,1.52,0,0,0,.61-.14A.57.57,0,0,0,96.1,14s.05,0,.06,0h0a.4.4,0,0,0,.38.18.86.86,0,0,0,.23,0,.09.09,0,0,1,.08,0v0a.19.19,0,0,0,.14.08l.07,0c.08-.05.1-.09.1-.13a.14.14,0,0,0,0-.06s0,0,0,0h0a.28.28,0,0,0,.18,0l.05-.06a.12.12,0,0,0,0-.11l-.06,0a0,0,0,0,1,0-.06l0,0a.15.15,0,0,0,.09-.09,0,0,0,0,0,0,0,.22.22,0,0,0,.12,0v0s0,0-.09,0h-.08c-.07,0-.1,0-.11-.05a0,0,0,0,1,0,0,2.15,2.15,0,0,0,.34-.05l.18-.05a2.18,2.18,0,0,0,.74.38,2.33,2.33,0,0,0,.39.09.2.2,0,0,1,0,.11.56.56,0,0,1,0,.07h0a.12.12,0,0,0-.09,0,.11.11,0,0,0,.08.19h0a.3.3,0,0,0,.2-.21,1,1,0,0,0,0-.17,1.21,1.21,0,0,0,.75-.19,1.16,1.16,0,0,0,.29-.23.08.08,0,0,1,.07,0h0a.15.15,0,0,0,.06,0l.07,0,.09,0,.06-.06,0-.05a.11.11,0,0,0,0-.05h0a.2.2,0,0,0,0-.09v0"/><path class="cls-1" d="M93.12,13.73a.17.17,0,0,0,.06-.06.1.1,0,0,0,0,0,.27.27,0,0,0,0-.19l-.06-.06h-.45l-.06.06a.27.27,0,0,0,0,.19.1.1,0,0,0,0,0,.17.17,0,0,0,.06.06l-.08,0a.18.18,0,0,0-.08.13.18.18,0,0,0,0,.05.31.31,0,0,0,.11.15l.06.07a.4.4,0,0,1,.07.13.28.28,0,0,0,0,.06.16.16,0,0,0,.15.06.19.19,0,0,0,.15-.06.12.12,0,0,0,0-.06.41.41,0,0,1,.08-.13l0-.07a.31.31,0,0,0,.11-.15.05.05,0,0,0,0-.05.18.18,0,0,0-.08-.13l-.08,0"/><path class="cls-1" d="M119,11.73V8.84h.65v2.85a.2.2,0,0,0,.1.2.66.66,0,0,0,.31,0v.48l-.12,0-.25,0a.68.68,0,0,1-.53-.19.8.8,0,0,1-.16-.53"/><path class="cls-1" d="M121.06,11.32a.61.61,0,0,0,.16.46.65.65,0,0,0,.47.16,1.26,1.26,0,0,0,.38-.06,3.68,3.68,0,0,0,.35-.15l.06.24.06.23a1.92,1.92,0,0,1-.4.17,1.74,1.74,0,0,1-.53.08,1.17,1.17,0,0,1-.9-.35,1.37,1.37,0,0,1-.32-1,1.49,1.49,0,0,1,.28-1,1.11,1.11,0,0,1,.88-.36,1,1,0,0,1,.81.36,1.43,1.43,0,0,1,.24.84v.3h-1.54Zm.46-1a.42.42,0,0,0-.36.19.84.84,0,0,0-.1.42h.9a.81.81,0,0,0-.09-.43.38.38,0,0,0-.35-.18"/><path class="cls-1" d="M116,6.73a.64.64,0,0,0,.16.46.65.65,0,0,0,.48.16,1.26,1.26,0,0,0,.38-.06,2.17,2.17,0,0,0,.35-.15l.06.24.06.24a2,2,0,0,1-.4.16,1.78,1.78,0,0,1-.53.08,1.21,1.21,0,0,1-.9-.34,1.41,1.41,0,0,1-.32-1,1.44,1.44,0,0,1,.28-.94,1.1,1.1,0,0,1,.88-.37.94.94,0,0,1,.8.37,1.36,1.36,0,0,1,.25.83v.3H116Zm.47-1a.4.4,0,0,0-.36.19.78.78,0,0,0-.11.41h.91a.9.9,0,0,0-.09-.42.38.38,0,0,0-.35-.18"/><path class="cls-1" d="M119.45,5.85a.32.32,0,0,0-.14,0l-.17,0a.48.48,0,0,0-.24.06.56.56,0,0,0-.2.12V7.81H118V5.28h.46l0,.18,0,.17h0a.52.52,0,0,1,.21-.26.6.6,0,0,1,.38-.13h.17l.12,0v.58Z"/><path class="cls-1" d="M121.39,7.81V6.31a.62.62,0,0,0-.11-.42.37.37,0,0,0-.33-.14.6.6,0,0,0-.24,0,.93.93,0,0,0-.2.1V7.81h-.66V5.28h.45l0,.15.06.14a.91.91,0,0,1,.3-.23,1.13,1.13,0,0,1,.48-.11.82.82,0,0,1,.67.27,1.18,1.18,0,0,1,.2.75V7.81h-.67Z"/><path class="cls-1" d="M124.84,6.54a1.47,1.47,0,0,1-.31,1,1.29,1.29,0,0,1-1.72,0,1.43,1.43,0,0,1-.3-1,1.46,1.46,0,0,1,.29-.93,1.19,1.19,0,0,1,1.74,0,1.46,1.46,0,0,1,.3.93m-.68,0A1.28,1.28,0,0,0,124,5.9a.42.42,0,0,0-.36-.18.4.4,0,0,0-.36.19,1.22,1.22,0,0,0-.12.63,1.29,1.29,0,0,0,.12.64.39.39,0,0,0,.36.19.43.43,0,0,0,.37-.18,1.31,1.31,0,0,0,.12-.65"/><path class="cls-1" d="M106.84,10.07a.78.78,0,0,1,0-.22,1,1,0,0,1,0-.25V8.84h.65V12.4h-.53l0-.14,0-.14a.65.65,0,0,1-.24.22.81.81,0,0,1-.41.11.92.92,0,0,1-.72-.32,1.46,1.46,0,0,1-.3-1,1.51,1.51,0,0,1,.31-1,1,1,0,0,1,.76-.34,1,1,0,0,1,.36.06.83.83,0,0,1,.26.19m-.06.38-.2-.09a.93.93,0,0,0-.25,0,.44.44,0,0,0-.38.19,1,1,0,0,0-.14.62,1.14,1.14,0,0,0,.14.64.41.41,0,0,0,.37.19.5.5,0,0,0,.24-.06.65.65,0,0,0,.22-.16V10.45Z"/><path class="cls-1" d="M108.6,11.32a.61.61,0,0,0,.16.46.69.69,0,0,0,.48.16,1.26,1.26,0,0,0,.38-.06,2.67,2.67,0,0,0,.34-.15L110,12l.06.23a1.92,1.92,0,0,1-.4.17,1.8,1.8,0,0,1-.54.08,1.17,1.17,0,0,1-.89-.35,1.37,1.37,0,0,1-.32-1,1.49,1.49,0,0,1,.28-1,1.08,1.08,0,0,1,.88-.36,1,1,0,0,1,.8.36,1.37,1.37,0,0,1,.24.84v.3H108.6Zm.47-1a.41.41,0,0,0-.36.19.76.76,0,0,0-.11.42h.91a.91.91,0,0,0-.09-.43.38.38,0,0,0-.35-.18"/><path class="cls-1" d="M113.16,12.45a1.34,1.34,0,0,1-1.1-.47,2.1,2.1,0,0,1-.38-1.34,2,2,0,0,1,.38-1.29,1.35,1.35,0,0,1,1.1-.49,2.57,2.57,0,0,1,.65.08,1.41,1.41,0,0,1,.51.22l-.12.27-.13.28a1.27,1.27,0,0,0-.35-.18,1.81,1.81,0,0,0-.49-.07.75.75,0,0,0-.64.3,1.52,1.52,0,0,0-.21.88,1.63,1.63,0,0,0,.21.91.72.72,0,0,0,.63.3,1.63,1.63,0,0,0,.49-.09,1.81,1.81,0,0,0,.41-.23l.1.28.11.27a2,2,0,0,1-1.17.37"/><path class="cls-1" d="M114.78,12.4V8.84h.66v.93a.79.79,0,0,1,0,.23.53.53,0,0,1,0,.16,1,1,0,0,1,.27-.23.9.9,0,0,1,.44-.11.83.83,0,0,1,.72.27,1.18,1.18,0,0,1,.19.75V12.4h-.68V10.9a.62.62,0,0,0-.11-.42.36.36,0,0,0-.33-.15.69.69,0,0,0-.24.05l-.2.11V12.4h-.66Z"/><path class="cls-1" d="M107.93,7.55a3.34,3.34,0,0,1-.63.24,2.4,2.4,0,0,1-.6.07,1.38,1.38,0,0,1-1.15-.49A2.08,2.08,0,0,1,105.16,6a2,2,0,0,1,.39-1.28,1.48,1.48,0,0,1,1.19-.48,2.54,2.54,0,0,1,.66.08,2.19,2.19,0,0,1,.46.22l-.13.26-.14.26a1.15,1.15,0,0,0-.37-.16,1.73,1.73,0,0,0-.47-.06.78.78,0,0,0-.68.32,1.36,1.36,0,0,0-.21.83,1.6,1.6,0,0,0,.22.93.74.74,0,0,0,.66.33,1.55,1.55,0,0,0,.31,0,1.07,1.07,0,0,0,.27-.08V6.53h-.47l0-.24,0-.26h1.12V7.55Z"/><path class="cls-1" d="M110.7,6.54a1.47,1.47,0,0,1-.31,1,1.09,1.09,0,0,1-.86.33,1.07,1.07,0,0,1-.85-.33,1.43,1.43,0,0,1-.31-1,1.4,1.4,0,0,1,.3-.93,1,1,0,0,1,.86-.38,1.08,1.08,0,0,1,.87.38,1.4,1.4,0,0,1,.3.93m-.68,0a1.18,1.18,0,0,0-.13-.64.4.4,0,0,0-.36-.18.39.39,0,0,0-.35.19,1.21,1.21,0,0,0-.13.63,1.42,1.42,0,0,0,.12.64.45.45,0,0,0,.73,0,1.31,1.31,0,0,0,.12-.65"/><path class="cls-1" d="M111.81,5.54a1,1,0,0,1,.26-.21.91.91,0,0,1,1.12.23,1.49,1.49,0,0,1,.28,1,1.43,1.43,0,0,1-.33,1,1,1,0,0,1-.76.33.94.94,0,0,1-.43-.09.7.7,0,0,1-.28-.26l-.06.15-.06.15h-.36V4.25h.66v.88l0,.21Zm0,1.57a.86.86,0,0,0,.2.18.49.49,0,0,0,.25.08.41.41,0,0,0,.36-.19,1,1,0,0,0,.15-.64,1.21,1.21,0,0,0-.13-.63.41.41,0,0,0-.37-.18.57.57,0,0,0-.25.06.77.77,0,0,0-.21.14V7.11Z"/><path class="cls-1" d="M59.55,31.35a11.89,11.89,0,0,0,4.19-1,11.39,11.39,0,0,0,3.47-2.42A11.66,11.66,0,0,0,69.79,24a13.17,13.17,0,0,0,.85-4.83A14,14,0,0,0,70,14.67,10.92,10.92,0,0,0,67.82,11a.31.31,0,0,0-.11-.08.5.5,0,0,0-.13,0,.34.34,0,0,0-.32.32s0,0,0,.05a.06.06,0,0,0,0,0,10.06,10.06,0,0,1,.51,5.49,4.4,4.4,0,0,1-2.43,3.35,3.8,3.8,0,0,1-2.81,0,7.26,7.26,0,0,1-2.75-2,.34.34,0,0,0-.23-.1.33.33,0,0,0-.24.1.4.4,0,0,0-.09.21.27.27,0,0,0,.06.21l0,0,0,0A8.85,8.85,0,0,1,61,21.32a10.18,10.18,0,0,1,.55,3.37A9.67,9.67,0,0,1,61,28a8.4,8.4,0,0,1-1.64,2.77.23.23,0,0,0-.07.1.28.28,0,0,0,0,.13.32.32,0,0,0,.09.23.36.36,0,0,0,.22.09"/><path class="cls-1" d="M31.64,23.45a2.26,2.26,0,0,1-.69.16,8.38,8.38,0,0,1-1.07.06h-.59V19.91h.47c.38,0,.74,0,1,.05a3.25,3.25,0,0,1,.73.14,1.73,1.73,0,0,1,.44.25,1.55,1.55,0,0,1,.33.39,2,2,0,0,1,.21.49,2.2,2.2,0,0,1,.06.53,3.1,3.1,0,0,1,0,.54,2.53,2.53,0,0,1-.19.48,1.45,1.45,0,0,1-.3.39,2.14,2.14,0,0,1-.39.28m4.42,6.82c-.13-.19-.27-.43-.44-.7s-.36-.61-.57-1c-.33-.59-.63-1.09-.89-1.5s-.48-.74-.66-1a7.32,7.32,0,0,0-.56-.64,5,5,0,0,0-.57-.49,4,4,0,0,0,.92-.52,2.81,2.81,0,0,0,.7-.72,3,3,0,0,0,.39-.91,4,4,0,0,0,.13-1.06,3.93,3.93,0,0,0-.26-1.5,3.13,3.13,0,0,0-.81-1.16,3.69,3.69,0,0,0-1.32-.74,5.66,5.66,0,0,0-1.69-.24h-3V31.2h1.88V25.51h.13a3.84,3.84,0,0,1,.73.06,1.18,1.18,0,0,1,.48.16A3.44,3.44,0,0,1,31,26c.13.12.27.25.42.41s.3.35.47.56.33.45.51.72l.29.51.28.52.27.47.27.48.17.25.16.26.07.1,0,.06.26.43.26.43H36.7l-.32-.47Z"/></g></g></svg>