<?xml version="1.0" encoding="UTF-8" standalone="no"?>
<!-- Created with Inkscape (http://www.inkscape.org/) -->

<svg
   width="118.365mm"
   height="28.918959mm"
   viewBox="0 0 118.365 28.918959"
   version="1.1"
   id="svg5"
   inkscape:version="1.1.2 (b8e25be833, 2022-02-05)"
   sodipodi:docname="dibujo-1.svg"
   xmlns:inkscape="http://www.inkscape.org/namespaces/inkscape"
   xmlns:sodipodi="http://sodipodi.sourceforge.net/DTD/sodipodi-0.dtd"
   xmlns="http://www.w3.org/2000/svg"
   xmlns:svg="http://www.w3.org/2000/svg">
  <sodipodi:namedview
     id="namedview7"
     pagecolor="#ffffff"
     bordercolor="#cccccc"
     borderopacity="1"
     inkscape:pageshadow="0"
     inkscape:pageopacity="1"
     inkscape:pagecheckerboard="0"
     inkscape:document-units="mm"
     showgrid="false"
     inkscape:zoom="1.5037598"
     inkscape:cx="350.1224"
     inkscape:cy="100.74747"
     inkscape:window-width="1920"
     inkscape:window-height="1016"
     inkscape:window-x="0"
     inkscape:window-y="27"
     inkscape:window-maximized="1"
     inkscape:current-layer="g1006"
     width="149mm"
     fit-margin-top="0"
     fit-margin-left="0"
     fit-margin-right="0"
     fit-margin-bottom="0" />
  <defs
     id="defs2" />
  <g
     inkscape:label="Capa 1"
     inkscape:groupmode="layer"
     id="layer1"
     transform="translate(-15.8175,-5.540521)">
    <g
       id="g1006"
       transform="matrix(0.26458333,0,0,0.26458333,52.069421,124.64252)">
      <g
         id="g1211"
         transform="translate(10.742206,0.99566683)">
        <g
           id="g922"
           transform="matrix(0.99663137,0,0,1,-194.52339,-481.24496)">
          <path
             fill="#e00109"
             d="m 94.4,103 c 0,7.8 -6.3,14.1 -14.1,14.1 -7.8,0 -14.1,-6.3 -14.1,-14.1 0,-7.8 6.3,-14.1 14.1,-14.1 7.8,-0.1 14.1,6.2 14.1,14.1"
             id="path916" />
          <path
             fill="#004e97"
             d="m 77,30.1 c 0,0 -12.2,25.3 -17.9,51.3 -3.5,16.2 -2,31.3 5.7,38.1 6.1,5.4 10.5,6.3 14.8,6.3 4.4,0 8.4,-1.7 13.2,-5.5 2.7,-2.2 4,-4.8 6.4,-2.4 2.5,2.5 3.5,7.5 0,12.1 -3.5,4.5 -11.1,9.4 -21.3,9.4 -14.4,0 -33.5,-9.9 -30.7,-40.1 C 50,69.1 74.7,32.7 77,30.1"
             id="path918" />
          <path
             fill="#5b6670"
             d="m 68.6,83.5 c 0,0 15.7,-8.5 29.9,3.3 11.9,9.9 10.3,24.3 9.1,33.5 -0.8,6.5 -4.3,15 2.4,15.4 7.1,0.4 11.2,-6.3 12.2,-16 1.6,-16.7 -6.8,-27 -14.7,-33.4 -6.9,-5.5 -25.4,-14.1 -38.9,-2.8"
             id="path920" />
        </g>
        <g
           id="g1004"
           transform="matrix(0.99663137,0,0,1,-194.52339,-481.24496)">
          <g
             id="g948">
            <path
               fill="#004e97"
               d="m 176.3,90.3 c 0,10.6 -6.7,19.5 -17.8,19.5 -11.2,0 -17.8,-8.9 -17.8,-19.5 0,-10.6 6.7,-19.5 17.8,-19.5 11.1,0 17.8,8.9 17.8,19.5 z m -29.2,0 c 0,7.2 3.3,14.2 11.3,14.2 8,0 11.3,-7 11.3,-14.2 0,-7.2 -3.3,-14.2 -11.3,-14.2 -8,0 -11.3,7.1 -11.3,14.2 z"
               id="path924" />
            <path
               fill="#004e97"
               d="m 182.3,82 h 5.6 v 3.7 h 0.1 c 1.7,-3.1 4.9,-4.4 8.4,-4.4 8.5,0 12.6,6.5 12.6,14.4 0,7.3 -3.7,14.1 -11.6,14.1 -3.4,0 -7.2,-1.3 -9,-4.2 h -0.1 v 13.5 h -5.9 V 82 Z m 13.3,4 c -5,0 -7.6,3.8 -7.6,9.6 0,5.4 2.8,9.5 7.6,9.5 5.4,0 7.5,-4.8 7.5,-9.5 0,-5 -2.6,-9.6 -7.5,-9.6 z"
               id="path926" />
            <path
               fill="#004e97"
               d="m 219.3,97 c 0,4.2 2.3,8 7.3,8 3.4,0 5.5,-1.5 6.6,-4.5 h 5.6 c -1.3,5.9 -6.3,9.2 -12.2,9.2 -8.5,0 -13.2,-5.9 -13.2,-14.2 0,-7.7 5,-14.2 13,-14.2 8.5,0 13.7,7.7 12.7,15.8 h -19.8 z m 13.8,-3.9 c -0.2,-3.8 -2.8,-7.2 -6.8,-7.2 -4.1,0 -6.9,3.1 -7.1,7.2 z"
               id="path928" />
            <path
               fill="#004e97"
               d="m 244.3,82 h 5.6 v 4 l 0.1,0.1 c 1.8,-3 4.9,-4.8 8.4,-4.8 5.8,0 9.6,3.1 9.6,9.2 V 109 h -6 V 92 c -0.1,-4.2 -1.8,-6.1 -5.3,-6.1 -4,0 -6.5,3.1 -6.5,7.1 v 16 h -5.9 z"
               id="path930" />
            <path
               fill="#5b6670"
               d="M 275.5,71.7 H 289 c 3.3,0 7.6,0 9.9,1.4 2.5,1.5 4.4,4.1 4.4,7.8 0,4 -2.1,6.9 -5.5,8.4 v 0.1 c 4.6,0.9 7.1,4.4 7.1,9 0,5.5 -3.9,10.7 -11.3,10.7 h -18 V 71.7 Z m 5,16 h 9.9 c 5.6,0 7.9,-2 7.9,-5.9 0,-5.2 -3.7,-5.9 -7.9,-5.9 h -9.9 z m 0,17.1 h 12.4 c 4.3,0 7,-2.6 7,-6.7 0,-4.9 -3.9,-6.2 -8.1,-6.2 h -11.3 z"
               id="path932" />
            <path
               fill="#5b6670"
               d="m 334,100.4 c -1.2,5.9 -5.5,9.2 -11.5,9.2 -8.6,0 -12.7,-5.9 -12.9,-14.2 0,-8.1 5.3,-14 12.7,-14 9.6,0 12.5,8.9 12.2,15.4 h -20.2 c -0.2,4.7 2.5,8.9 8.4,8.9 3.7,0 6.2,-1.8 7,-5.3 z m -4.3,-7.5 c -0.2,-4.2 -3.4,-7.6 -7.8,-7.6 -4.6,0 -7.4,3.5 -7.7,7.6 z"
               id="path934" />
            <path
               fill="#5b6670"
               d="m 363.6,108.9 c -0.8,0.5 -1.8,0.7 -3.2,0.7 -2.3,0 -3.8,-1.3 -3.8,-4.2 -2.5,2.9 -5.7,4.2 -9.5,4.2 -4.9,0 -8.9,-2.2 -8.9,-7.6 0,-6.1 4.5,-7.4 9.1,-8.3 4.9,-0.9 9.1,-0.6 9.1,-4 0,-3.9 -3.2,-4.5 -6,-4.5 -3.8,0 -6.5,1.1 -6.7,5.1 h -4.4 c 0.3,-6.7 5.4,-9 11.4,-9 4.9,0 10.1,1.1 10.1,7.4 v 13.9 c 0,2.1 0,3 1.4,3 0.4,0 0.8,-0.1 1.4,-0.3 z M 356.4,95 c -1.7,1.3 -5.1,1.3 -8,1.8 -2.9,0.5 -5.4,1.6 -5.4,4.9 0,2.9 2.5,4 5.2,4 5.8,0 8.2,-3.7 8.2,-6.1 z"
               id="path936" />
            <path
               fill="#e00109"
               d="m 390.3,109 h -4.2 v -4.3 H 386 c -1.9,3.3 -4.9,4.9 -8.8,4.9 -7.1,0 -9.3,-4.1 -9.3,-9.9 V 82 h 4.4 v 18.3 c 0,3.3 2.1,5.4 5.5,5.4 5.4,0 8,-3.6 8,-8.5 V 82 h 4.4 v 27 z"
               id="path938" />
            <path
               fill="#e00109"
               d="m 415.8,90.7 c -0.7,-3.4 -3,-5.4 -6.7,-5.4 -6.4,0 -8.4,5.1 -8.4,10.5 0,5 2.2,9.9 7.9,9.9 4.3,0 6.8,-2.5 7.4,-6.6 h 4.5 c -1,6.6 -5.1,10.5 -11.9,10.5 -8.2,0 -12.6,-5.7 -12.6,-13.8 0,-8.1 4.2,-14.5 12.7,-14.5 6.1,0 11,2.9 11.6,9.3 h -4.5 z"
               id="path940" />
            <path
               fill="#e00109"
               d="m 425.9,71.7 h 4.4 V 86 h 0.1 c 1.5,-3.2 5.3,-4.6 8.5,-4.6 7.1,0 9.3,4.1 9.3,9.9 V 109 h -4.4 V 90.7 c 0,-3.3 -2.1,-5.4 -5.5,-5.4 -5.4,0 -8,3.6 -8,8.5 V 109 h -4.4 z"
               id="path942" />
            <path
               fill="#5b6670"
               d="m 478.3,100.4 c -1.2,5.9 -5.5,9.2 -11.5,9.2 -8.6,0 -12.7,-5.9 -12.9,-14.2 0,-8.1 5.3,-14 12.7,-14 9.6,0 12.5,8.9 12.2,15.4 h -20.2 c -0.2,4.7 2.5,8.9 8.4,8.9 3.7,0 6.2,-1.8 7,-5.3 z M 474,92.9 c -0.2,-4.2 -3.4,-7.6 -7.8,-7.6 -4.6,0 -7.4,3.5 -7.7,7.6 z"
               id="path944" />
            <path
               fill="#5b6670"
               d="m 485.4,85.9 h -4.5 V 82 h 4.5 v -4 c 0,-4.4 2.6,-6.7 7.5,-6.7 0.8,0 2,0.2 2.9,0.4 v 3.9 c -0.8,-0.3 -1.7,-0.4 -2.5,-0.4 -2.1,0 -3.4,0.7 -3.4,3 V 82 h 5.2 v 3.9 h -5.2 V 109 h -4.4 V 85.9 Z"
               id="path946" />
          </g>
        </g>
      </g>
    </g>
  </g>
</svg>
