<?xml version="1.0" encoding="UTF-8" standalone="no"?>
<!-- Created with Inkscape (http://www.inkscape.org/) -->

<svg
   width="346.17563mm"
   height="77.78997mm"
   viewBox="0 0 346.17563 77.78997"
   version="1.1"
   id="svg5"
   inkscape:version="1.1.2 (76b9e6a115, 2022-02-25)"
   sodipodi:docname="dibujo-2.svg"
   xmlns:inkscape="http://www.inkscape.org/namespaces/inkscape"
   xmlns:sodipodi="http://sodipodi.sourceforge.net/DTD/sodipodi-0.dtd"
   xmlns="http://www.w3.org/2000/svg"
   xmlns:svg="http://www.w3.org/2000/svg">
  <sodipodi:namedview
     id="namedview7"
     pagecolor="#ffffff"
     bordercolor="#cccccc"
     borderopacity="1"
     inkscape:pageshadow="0"
     inkscape:pageopacity="1"
     inkscape:pagecheckerboard="0"
     inkscape:document-units="mm"
     showgrid="false"
     fit-margin-top="0"
     fit-margin-left="0"
     fit-margin-right="0"
     fit-margin-bottom="0"
     width="20mm"
     inkscape:zoom="0.47393378"
     inkscape:cx="610.84483"
     inkscape:cy="239.48493"
     inkscape:window-width="1366"
     inkscape:window-height="704"
     inkscape:window-x="1920"
     inkscape:window-y="339"
     inkscape:window-maximized="1"
     inkscape:current-layer="layer1" />
  <defs
     id="defs2">
    <clipPath
       clipPathUnits="userSpaceOnUse"
       id="clipPath213">
      <path
         d="M 0,1080 H 1080 V 0 H 0 Z"
         id="path211" />
    </clipPath>
    <linearGradient
       x1="0"
       y1="0"
       x2="1"
       y2="0"
       gradientUnits="userSpaceOnUse"
       gradientTransform="matrix(1.5555294,-181.21919,-181.21919,-1.5555294,216.6969,599.94257)"
       spreadMethod="pad"
       id="linearGradient275">
      <stop
         style="stop-opacity:1;stop-color:#9bcce8"
         offset="0"
         id="stop267" />
      <stop
         style="stop-opacity:1;stop-color:#9bcce8"
         offset="0.28922421"
         id="stop269" />
      <stop
         style="stop-opacity:1;stop-color:#a6b2ff"
         offset="0.590092"
         id="stop271" />
      <stop
         style="stop-opacity:1;stop-color:#a6b2ff"
         offset="1"
         id="stop273" />
    </linearGradient>
    <linearGradient
       x1="0"
       y1="0"
       x2="1"
       y2="0"
       gradientUnits="userSpaceOnUse"
       gradientTransform="matrix(21.572649,-149.66025,-149.66025,-21.572649,197.67783,639.84839)"
       spreadMethod="pad"
       id="linearGradient297">
      <stop
         style="stop-opacity:1;stop-color:#b2b2b2"
         offset="0"
         id="stop291" />
      <stop
         style="stop-opacity:1;stop-color:#211915"
         offset="0.53589132"
         id="stop293" />
      <stop
         style="stop-opacity:1;stop-color:#211915"
         offset="1"
         id="stop295" />
    </linearGradient>
    <clipPath
       clipPathUnits="userSpaceOnUse"
       id="clipPath307">
      <path
         d="M 0,1080 H 1080 V 0 H 0 Z"
         id="path305" />
    </clipPath>
  </defs>
  <g
     inkscape:label="Capa 1"
     inkscape:groupmode="layer"
     id="layer1"
     transform="translate(60.317143,-88.949)">
    <g
       id="g205"
       inkscape:label="logo3"
       transform="matrix(0.35277777,0,0,-0.35277777,-77.987323,317.55277)">
      <g
         id="g207">
        <g
           id="g209"
           clip-path="url(#clipPath213)">
          <g
             id="g215"
             transform="translate(454.4336,515.6709)">
            <path
               d="m 0,0 h 27.225 c 1.576,0 2.836,-1.26 2.836,-2.734 v -34.678 c 0,-1.26 -1.05,-2.315 -2.417,-2.315 h -2.207 c -1.263,0 -2.206,0.943 -2.313,2.211 l -0.737,9.881 c -5.043,-8.303 -13.663,-13.351 -26.17,-13.351 -21.757,0 -37.417,16.505 -37.417,38.047 0,21.543 15.66,38.149 37.417,38.149 10.929,0 20.39,-4.198 27.014,-11.14 1.259,-1.259 0.943,-3.358 -0.527,-4.31 l -3.993,-2.621 c -1.157,-0.738 -2.631,-0.533 -3.573,0.419 -4.521,4.73 -10.935,7.772 -18.921,7.772 -17.134,0 -26.697,-13.976 -26.697,-28.269 0,-14.293 9.563,-28.269 26.697,-28.269 15.45,0 23.754,9.665 25.437,21.645 L 0,-9.563 c -1.576,0 -2.836,1.259 -2.836,2.835 v 3.994 C -2.836,-1.26 -1.576,0 0,0"
               style="fill:#000000;fill-opacity:1;fill-rule:nonzero;stroke:none"
               id="path217" />
          </g>
          <g
             id="g219"
             transform="translate(552.0645,502.5342)">
            <path
               d="M 0,0 C 0,10.617 -6.619,18.921 -18.394,18.921 -29.431,18.921 -36.05,10.832 -36.05,0 c 0,-10.72 6.619,-18.809 17.656,-18.809 C -6.619,-18.809 0,-10.505 0,0 m 2.841,26.702 h 3.993 c 1.577,0 2.836,-1.269 2.836,-2.846 v -47.609 c 0,-1.577 -1.259,-2.837 -2.836,-2.837 H 2.841 C 1.265,-26.59 0,-25.33 0,-23.753 v 4.627 c -3.886,-4.944 -10.09,-8.724 -19.341,-8.724 -16.601,0 -26.482,13.977 -26.482,27.85 0,13.985 9.881,27.961 26.482,27.961 9.251,0 15.455,-3.787 19.341,-8.723 v 4.618 c 0,1.577 1.265,2.846 2.841,2.846"
               style="fill:#000000;fill-opacity:1;fill-rule:nonzero;stroke:none"
               id="path221" />
          </g>
          <g
             id="g223"
             transform="translate(608.8076,520.0928)">
            <path
               d="m 0,0 h -9.563 v -23.334 c 0,-7.575 0.21,-12.613 8.407,-12.613 h 1.473 c 1.368,0.102 2.519,-0.952 2.519,-2.314 v -3.89 c 0,-1.26 -0.941,-2.211 -2.099,-2.315 -0.947,-0.102 -1.997,-0.205 -3.05,-0.205 -11.667,0 -16.818,6.195 -16.818,17.97 V 0 h -6.306 c -1.573,0 -2.836,1.26 -2.836,2.836 v 3.462 c 0,1.576 1.263,2.846 2.836,2.846 h 6.306 v 8.405 c 0,1.474 1.265,2.734 2.842,2.734 h 3.886 c 1.576,0 2.84,-1.26 2.84,-2.734 V 9.144 H 0 c 1.577,0 2.836,-1.27 2.836,-2.846 V 2.836 C 2.836,1.26 1.577,0 0,0"
               style="fill:#000000;fill-opacity:1;fill-rule:nonzero;stroke:none"
               id="path225" />
          </g>
          <g
             id="g227"
             transform="translate(635.71,478.7812)">
            <path
               d="m 0,0 v 47.609 c 0,1.577 1.26,2.846 2.836,2.846 h 3.891 c 1.577,0 2.836,-1.269 2.836,-2.846 V 0 c 0,-1.577 -1.259,-2.837 -2.836,-2.837 H 2.836 C 1.26,-2.837 0,-1.577 0,0 m -0.737,65.373 c 0,3.051 2.524,5.467 5.467,5.467 3.046,0 5.467,-2.416 5.467,-5.467 0,-3.042 -2.421,-5.458 -5.467,-5.458 -2.943,0 -5.467,2.416 -5.467,5.458"
               style="fill:#000000;fill-opacity:1;fill-rule:nonzero;stroke:none"
               id="path229" />
          </g>
          <g
             id="g231"
             transform="translate(692.3604,520.0928)">
            <path
               d="m 0,0 h -9.572 v -23.334 c 0,-7.575 0.214,-12.613 8.415,-12.613 h 1.473 c 1.363,0.102 2.52,-0.952 2.52,-2.314 v -3.89 c 0,-1.26 -0.952,-2.211 -2.108,-2.315 -0.943,-0.102 -1.998,-0.205 -3.042,-0.205 -11.671,0 -16.822,6.195 -16.822,17.97 V 0 h -6.306 c -1.578,0 -2.836,1.26 -2.836,2.836 v 3.462 c 0,1.576 1.258,2.846 2.836,2.846 h 6.306 v 8.405 c 0,1.474 1.26,2.734 2.846,2.734 h 3.881 c 1.577,0 2.837,-1.26 2.837,-2.734 V 9.144 H 0 c 1.567,0 2.836,-1.27 2.836,-2.846 V 2.836 C 2.836,1.26 1.567,0 0,0"
               style="fill:#000000;fill-opacity:1;fill-rule:nonzero;stroke:none"
               id="path233" />
          </g>
          <g
             id="g235"
             transform="translate(761.083,502.5342)">
            <path
               d="m 0,0 c 0,10.935 -7.669,18.921 -18.175,18.921 -10.514,0 -18.081,-7.986 -18.081,-18.921 0,-10.822 7.567,-18.809 18.081,-18.809 C -7.669,-18.809 0,-10.822 0,0 m 9.777,0 c 0,-15.348 -11.877,-27.952 -27.952,-27.952 -16.084,0 -27.961,12.604 -27.961,27.952 0,15.348 11.877,27.961 27.961,27.961 C -2.1,27.961 9.777,15.348 9.777,0"
               style="fill:#000000;fill-opacity:1;fill-rule:nonzero;stroke:none"
               id="path237" />
          </g>
          <g
             id="g239"
             transform="translate(795.8643,549.5186)">
            <path
               d="m 0,0 h 9.675 c 1.996,0 3.676,-1.68 3.676,-3.788 v -65.998 c 0,-2.109 -1.68,-3.788 -3.676,-3.788 H 0 c -1.997,0 -3.677,1.679 -3.677,3.788 V -3.788 C -3.677,-1.68 -1.997,0 0,0"
               style="fill:#000000;fill-opacity:1;fill-rule:nonzero;stroke:none"
               id="path241" />
          </g>
          <g
             id="g243"
             transform="translate(869.6436,502.5342)">
            <path
               d="m 0,0 c 0,7.146 -5.038,11.457 -11.457,11.457 -7.035,0 -11.345,-4.833 -11.345,-11.457 0,-6.512 4.31,-11.345 11.345,-11.345 C -5.038,-11.345 0,-7.044 0,0 m 3.368,26.702 h 10.514 c 2.09,0 3.779,-1.689 3.779,-3.788 v -45.716 c 0,-2.108 -1.689,-3.788 -3.779,-3.788 H 3.368 c -1.577,0 -2.846,1.26 -2.846,2.837 v 2.416 c -3.153,-3.891 -7.875,-6.513 -15.021,-6.513 -16.606,0 -25.545,13.977 -25.545,27.85 0,13.985 8.939,27.961 25.545,27.961 7.146,0 11.868,-2.631 15.021,-6.522 v 2.417 c 0,1.577 1.269,2.846 2.846,2.846"
               style="fill:#000000;fill-opacity:1;fill-rule:nonzero;stroke:none"
               id="path245" />
          </g>
          <g
             id="g247"
             transform="translate(951.1943,502.5342)">
            <path
               d="m 0,0 c 0,6.624 -4.311,11.457 -11.457,11.457 -6.409,0 -11.355,-4.311 -11.355,-11.457 0,-7.044 4.946,-11.345 11.355,-11.345 C -4.311,-11.345 0,-6.512 0,0 m 17.231,0 c 0,-13.873 -9.03,-27.85 -25.535,-27.85 -7.249,0 -11.979,2.622 -15.03,6.513 v -2.416 c 0,-1.577 -1.259,-2.837 -2.836,-2.837 h -10.515 c -2.099,0 -3.778,1.68 -3.778,3.788 v 65.998 c 0,2.109 1.679,3.788 3.778,3.788 h 9.564 c 2.108,0 3.787,-1.679 3.787,-3.788 V 21.439 c 3.051,3.891 7.781,6.522 15.03,6.522 C 8.201,27.961 17.231,13.985 17.231,0"
               style="fill:#000000;fill-opacity:1;fill-rule:nonzero;stroke:none"
               id="path249" />
          </g>
          <g
             id="g251"
             transform="translate(1031.374,492.5518)">
            <path
               d="m 0,0 c 0,-11.242 -8.201,-17.867 -23.865,-17.867 -9.451,0 -18.604,2.622 -22.066,9.778 -0.84,1.465 0,3.359 1.68,3.881 l 10.402,3.266 c 1.158,0.307 2.417,-0.113 3.154,-1.055 1.054,-1.474 3.153,-2.631 6.624,-2.631 3.573,0 6.41,1.055 6.41,3.891 0,3.573 -5.57,3.47 -11.775,4.833 -10.299,2.211 -15.767,5.886 -15.767,16.401 0,11.14 9.461,17.446 22.811,17.446 7.987,0 15.982,-3.368 19.341,-10.299 0.737,-1.577 -0.215,-3.574 -1.894,-3.994 l -9.04,-2.211 c -1.045,-0.205 -2.202,0.215 -2.836,1.158 -1.045,1.473 -3.042,2.313 -5.468,2.313 -3.358,0 -6.409,-0.942 -6.409,-3.993 0,-3.471 5.681,-3.676 9.88,-4.525 C -5.365,13.556 0,9.777 0,0"
               style="fill:#000000;fill-opacity:1;fill-rule:nonzero;stroke:none"
               id="path253" />
          </g>
        </g>
      </g>
      <g
         id="g255">
        <g
           id="g257">
          <g
             id="g263">
            <g
               id="g265">
              <path
                 d="M 121.998,592.864 C 86.199,585.427 59.085,553.536 59.085,515.616 v 0 c 0,-43.388 35.499,-78.887 78.887,-78.887 v 0 H 296.87 c 43.388,0 78.887,35.499 78.887,78.887 v 0 c 0,40.155 -30.413,73.529 -69.336,78.284 v 0 c -6.321,11.822 -24.416,44.752 -29.899,44.885 v 0 c -5.181,0.126 -20.747,-30.513 -27.477,-44.281 v 0 h -69.194 c -6.595,12.298 -24.185,44.15 -29.576,44.281 v 0 c -0.011,0 -0.022,0 -0.032,0 v 0 c -5.433,0.002 -22.052,-33.161 -28.245,-45.921"
                 style="fill:url(#linearGradient275);stroke:none"
                 id="path277" />
            </g>
          </g>
        </g>
      </g>
      <g
         id="g279">
        <g
           id="g281">
          <g
             id="g287">
            <g
               id="g289">
              <path
                 d="m 142.699,571.845 c -32.408,0 -58.922,-26.515 -58.922,-58.922 v 0 c 0,-32.407 26.514,-58.921 58.922,-58.921 v 0 h 146.55 c 32.406,0 58.92,26.514 58.92,58.921 v 0 c 0,32.407 -26.514,58.922 -58.92,58.922 v 0 z"
                 style="fill:url(#linearGradient297);stroke:none"
                 id="path299" />
            </g>
          </g>
        </g>
      </g>
      <g
         id="g301">
        <g
           id="g303"
           clip-path="url(#clipPath307)">
          <g
             id="g309"
             transform="translate(156.7891,524.7129)">
            <path
               d="m 0,0 c 0,-6.478 -5.251,-11.729 -11.729,-11.729 -6.477,0 -11.728,5.251 -11.728,11.729 0,6.478 5.251,11.729 11.728,11.729 C -5.251,11.729 0,6.478 0,0"
               style="fill:#9fd4ff;fill-opacity:1;fill-rule:nonzero;stroke:none"
               id="path311" />
          </g>
          <g
             id="g313"
             transform="translate(297.5332,524.7129)">
            <path
               d="m 0,0 c 0,-6.478 -5.251,-11.729 -11.729,-11.729 -6.477,0 -11.729,5.251 -11.729,11.729 0,6.478 5.252,11.729 11.729,11.729 C -5.251,11.729 0,6.478 0,0"
               style="fill:#9fd4ff;fill-opacity:1;fill-rule:nonzero;stroke:none"
               id="path315" />
          </g>
          <g
             id="g317"
             transform="translate(214.8721,487.6943)">
            <path
               d="m 0,0 -11.869,10.416 c -2.793,2.451 -1.06,7.055 2.657,7.055 h 23.98 c 3.736,0 5.459,-4.646 2.626,-7.081 L 5.282,-0.026 C 3.761,-1.335 1.509,-1.323 0,0"
               style="fill:#ffa8ff;fill-opacity:1;fill-rule:nonzero;stroke:none"
               id="path319" />
          </g>
          <g
             id="g321"
             transform="translate(268.3398,493.5762)">
            <path
               d="M 0,0 44.128,7.538"
               style="fill:none;stroke:#fffdff;stroke-width:1.845;stroke-linecap:round;stroke-linejoin:miter;stroke-miterlimit:10;stroke-dasharray:none;stroke-opacity:1"
               id="path323" />
          </g>
          <g
             id="g325"
             transform="translate(268.0234,488.6953)">
            <path
               d="M 0,0 36.021,0.743"
               style="fill:none;stroke:#fffdff;stroke-width:1.845;stroke-linecap:round;stroke-linejoin:miter;stroke-miterlimit:10;stroke-dasharray:none;stroke-opacity:1"
               id="path327" />
          </g>
          <g
             id="g329"
             transform="translate(268.2607,482.6748)">
            <path
               d="M 0,0 44.286,-6.534"
               style="fill:none;stroke:#fffdff;stroke-width:1.845;stroke-linecap:round;stroke-linejoin:miter;stroke-miterlimit:10;stroke-dasharray:none;stroke-opacity:1"
               id="path331" />
          </g>
          <g
             id="g333"
             transform="translate(170.5664,493.5762)">
            <path
               d="M 0,0 -44.127,7.538"
               style="fill:none;stroke:#fffdff;stroke-width:1.845;stroke-linecap:round;stroke-linejoin:miter;stroke-miterlimit:10;stroke-dasharray:none;stroke-opacity:1"
               id="path335" />
          </g>
          <g
             id="g337"
             transform="translate(170.8828,488.6953)">
            <path
               d="M 0,0 -36.021,0.743"
               style="fill:none;stroke:#fffdff;stroke-width:1.845;stroke-linecap:round;stroke-linejoin:miter;stroke-miterlimit:10;stroke-dasharray:none;stroke-opacity:1"
               id="path339" />
          </g>
          <g
             id="g341"
             transform="translate(170.6465,482.6748)">
            <path
               d="M 0,0 -44.287,-6.534"
               style="fill:none;stroke:#fffdff;stroke-width:1.845;stroke-linecap:round;stroke-linejoin:miter;stroke-miterlimit:10;stroke-dasharray:none;stroke-opacity:1"
               id="path343" />
          </g>
          <g
             id="g345"
             transform="translate(150.4687,648.0107)">
            <path
               d="m 0,0 c -6.817,0 -11.925,-5.339 -21.857,-22.849 -4.727,-8.331 -9.519,-17.774 -12.751,-24.322 -38.376,-10.106 -65.772,-45.232 -65.772,-85.224 0,-23.448 9.19,-45.551 25.875,-62.237 16.686,-16.685 38.789,-25.875 62.237,-25.875 H 146.63 c 23.449,0 45.552,9.19 62.237,25.875 16.686,16.686 25.875,38.789 25.875,62.237 0,21.583 -7.961,42.381 -22.417,58.563 -13.233,14.813 -30.916,24.694 -50.21,28.153 -3.416,6.283 -8.409,15.232 -13.346,23.237 -10.507,17.036 -15.708,22.279 -22.261,22.438 -0.075,0.002 -0.182,0.004 -0.257,0.004 -6.62,0 -11.762,-5.254 -21.159,-21.62 -4.244,-7.393 -8.573,-15.762 -12.019,-22.662 H 35.105 c -3.407,6.23 -8.196,14.758 -12.891,22.337 C 11.895,-5.289 6.766,-0.162 0.26,-0.004 0.185,-0.002 0.078,0 0.003,0 Z m 126.251,-9.226 h 0.032 c 5.482,-0.133 23.576,-33.062 29.899,-44.884 38.923,-4.755 69.336,-38.13 69.336,-78.285 0,-43.387 -35.499,-78.886 -78.888,-78.886 H -12.268 c -43.387,0 -78.887,35.499 -78.887,78.886 0,37.92 27.115,69.811 62.913,77.249 6.193,12.759 22.813,45.922 28.245,45.92 H 0.035 C 5.426,-9.357 23.017,-41.208 29.61,-53.507 h 69.195 c 6.717,13.741 22.233,44.281 27.446,44.281"
               style="fill:#2b2b2b;fill-opacity:1;fill-rule:nonzero;stroke:none"
               id="path347" />
          </g>
        </g>
      </g>
    </g>
  </g>
</svg>
