<svg xmlns="http://www.w3.org/2000/svg" width="300" viewBox="0 0 300 60" height="60" version="1.0"><path fill="#FF66C4" d="M 30.375 43.855469 L 30.375 41.894531 L 6 41.894531 L 6 45.3125 L 30.375 45.3125 L 30.375 43.855469 M 6 45.3125 L 30.375 60.171875 L 30.375 45.3125 L 6 45.3125 M 6 27.035156 L 30.375 27.035156 L 30.375 41.894531 L 6 41.894531 L 6 27.035156"/><path fill="#5E17EB" d="M 30.375 41.894531 L 30.375 45.3125 L 54.75 45.3125 L 54.75 41.894531 L 30.375 41.894531 M 30.375 27.035156 L 54.75 27.035156 L 54.75 41.894531 L 30.375 41.894531 L 30.375 27.035156 M 30.375 60.171875 L 54.75 45.3125 L 30.375 45.3125 L 30.375 60.171875"/><path fill="#5CE1E6" d="M 30.375 41.894531 L 6 27.035156 L 30.375 12.175781 L 54.75 27.035156 L 30.375 41.894531"/><path fill="#5CE1E6" d="M 54.8125 27 L 30.0625 27 L 30.0625 0 L 54.8125 27"/><path fill="#FF66C4" d="M 30.75 41.769531 L 6 41.769531 L 6 14.773438 L 30.75 41.769531"/><g><g><g><path d="M 23.890625 -13.46875 C 24.203125 -13.46875 24.457031 -13.375 24.65625 -13.1875 C 24.851562 -13 24.953125 -12.75 24.953125 -12.4375 L 24.953125 -3.4375 C 24.953125 -3.269531 24.941406 -3.132812 24.921875 -3.03125 C 24.898438 -2.925781 24.828125 -2.8125 24.703125 -2.6875 C 22.671875 -0.65625 19.765625 0.359375 15.984375 0.359375 C 13.503906 0.359375 11.203125 -0.285156 9.078125 -1.578125 C 6.953125 -2.867188 5.257812 -4.601562 4 -6.78125 C 2.75 -8.96875 2.125 -11.328125 2.125 -13.859375 C 2.125 -16.390625 2.742188 -18.738281 3.984375 -20.90625 C 5.222656 -23.082031 6.898438 -24.816406 9.015625 -26.109375 C 11.140625 -27.398438 13.460938 -28.046875 15.984375 -28.046875 C 19.296875 -28.046875 22.21875 -26.992188 24.75 -24.890625 C 24.957031 -24.722656 25.0625 -24.484375 25.0625 -24.171875 C 25.0625 -23.890625 24.96875 -23.632812 24.78125 -23.40625 C 24.59375 -23.1875 24.332031 -23.078125 24 -23.078125 C 23.738281 -23.078125 23.441406 -23.21875 23.109375 -23.5 C 21.316406 -25.113281 18.941406 -25.921875 15.984375 -25.921875 C 13.910156 -25.921875 11.96875 -25.363281 10.15625 -24.25 C 8.34375 -23.132812 6.90625 -21.648438 5.84375 -19.796875 C 4.78125 -17.941406 4.25 -15.960938 4.25 -13.859375 C 4.25 -11.679688 4.773438 -9.664062 5.828125 -7.8125 C 6.878906 -5.957031 8.304688 -4.484375 10.109375 -3.390625 C 11.921875 -2.304688 13.878906 -1.765625 15.984375 -1.765625 C 18.566406 -1.765625 20.847656 -2.5 22.828125 -3.96875 L 22.828125 -11.5625 L 16.875 -11.5625 C 16.570312 -11.5625 16.316406 -11.65625 16.109375 -11.84375 C 15.910156 -12.03125 15.8125 -12.265625 15.8125 -12.546875 C 15.8125 -12.804688 15.910156 -13.023438 16.109375 -13.203125 C 16.316406 -13.378906 16.570312 -13.46875 16.875 -13.46875 Z M 23.890625 -13.46875" transform="translate(67.388 40.871)"/></g></g></g><g><g><g><path d="M 12.046875 -19.609375 C 13.890625 -19.609375 15.566406 -19.175781 17.078125 -18.3125 C 18.597656 -17.445312 19.789062 -16.257812 20.65625 -14.75 C 21.519531 -13.238281 21.953125 -11.546875 21.953125 -9.671875 L 21.953125 -1.0625 C 21.953125 -0.757812 21.851562 -0.503906 21.65625 -0.296875 C 21.46875 -0.0976562 21.207031 0 20.875 0 C 20.570312 0 20.316406 -0.0976562 20.109375 -0.296875 C 19.910156 -0.503906 19.8125 -0.757812 19.8125 -1.0625 L 19.8125 -3.828125 C 19.03125 -2.578125 17.960938 -1.585938 16.609375 -0.859375 C 15.253906 -0.140625 13.734375 0.21875 12.046875 0.21875 C 10.179688 0.21875 8.492188 -0.210938 6.984375 -1.078125 C 5.472656 -1.941406 4.285156 -3.128906 3.421875 -4.640625 C 2.554688 -6.148438 2.125 -7.828125 2.125 -9.671875 C 2.125 -11.546875 2.554688 -13.238281 3.421875 -14.75 C 4.285156 -16.257812 5.472656 -17.445312 6.984375 -18.3125 C 8.492188 -19.175781 10.179688 -19.609375 12.046875 -19.609375 Z M 12.046875 -1.765625 C 13.515625 -1.765625 14.835938 -2.109375 16.015625 -2.796875 C 17.203125 -3.484375 18.128906 -4.425781 18.796875 -5.625 C 19.472656 -6.832031 19.8125 -8.179688 19.8125 -9.671875 C 19.8125 -11.160156 19.472656 -12.507812 18.796875 -13.71875 C 18.128906 -14.925781 17.203125 -15.878906 16.015625 -16.578125 C 14.835938 -17.273438 13.515625 -17.625 12.046875 -17.625 C 10.585938 -17.625 9.265625 -17.273438 8.078125 -16.578125 C 6.898438 -15.878906 5.96875 -14.925781 5.28125 -13.71875 C 4.59375 -12.507812 4.25 -11.160156 4.25 -9.671875 C 4.25 -8.179688 4.59375 -6.832031 5.28125 -5.625 C 5.96875 -4.425781 6.898438 -3.484375 8.078125 -2.796875 C 9.265625 -2.109375 10.585938 -1.765625 12.046875 -1.765625 Z M 12.046875 -1.765625" transform="translate(94.58 40.871)"/></g></g></g><g><g><g><path d="M 11.953125 -2.15625 C 12.273438 -2.15625 12.535156 -2.054688 12.734375 -1.859375 C 12.941406 -1.660156 13.046875 -1.394531 13.046875 -1.0625 C 13.046875 -0.757812 12.941406 -0.503906 12.734375 -0.296875 C 12.535156 -0.0976562 12.273438 0 11.953125 0 L 11.125 0 C 9.832031 0 8.675781 -0.289062 7.65625 -0.875 C 6.644531 -1.46875 5.851562 -2.28125 5.28125 -3.3125 C 4.71875 -4.34375 4.4375 -5.507812 4.4375 -6.8125 L 4.4375 -16.765625 L 1.671875 -16.765625 C 1.378906 -16.765625 1.144531 -16.851562 0.96875 -17.03125 C 0.789062 -17.207031 0.703125 -17.4375 0.703125 -17.71875 C 0.703125 -18.007812 0.789062 -18.242188 0.96875 -18.421875 C 1.144531 -18.597656 1.378906 -18.6875 1.671875 -18.6875 L 4.4375 -18.6875 L 4.4375 -24.46875 C 4.4375 -24.789062 4.535156 -25.050781 4.734375 -25.25 C 4.929688 -25.457031 5.1875 -25.5625 5.5 -25.5625 C 5.820312 -25.5625 6.082031 -25.457031 6.28125 -25.25 C 6.488281 -25.050781 6.59375 -24.789062 6.59375 -24.46875 L 6.59375 -18.6875 L 11.28125 -18.6875 C 11.5625 -18.6875 11.789062 -18.597656 11.96875 -18.421875 C 12.144531 -18.242188 12.234375 -18.007812 12.234375 -17.71875 C 12.234375 -17.4375 12.144531 -17.207031 11.96875 -17.03125 C 11.789062 -16.851562 11.5625 -16.765625 11.28125 -16.765625 L 6.59375 -16.765625 L 6.59375 -6.8125 C 6.59375 -5.4375 7.015625 -4.316406 7.859375 -3.453125 C 8.710938 -2.585938 9.816406 -2.15625 11.171875 -2.15625 Z M 11.953125 -2.15625" transform="translate(118.652 40.871)"/></g></g></g><g><g><g><path d="M 4.96875 0 C 4.65625 0 4.398438 -0.0976562 4.203125 -0.296875 C 4.003906 -0.503906 3.90625 -0.757812 3.90625 -1.0625 L 3.90625 -18.328125 C 3.90625 -18.660156 4.003906 -18.921875 4.203125 -19.109375 C 4.398438 -19.296875 4.65625 -19.390625 4.96875 -19.390625 C 5.289062 -19.390625 5.546875 -19.296875 5.734375 -19.109375 C 5.929688 -18.921875 6.03125 -18.660156 6.03125 -18.328125 L 6.03125 -1.0625 C 6.03125 -0.757812 5.929688 -0.503906 5.734375 -0.296875 C 5.546875 -0.0976562 5.289062 0 4.96875 0 Z M 4.921875 -23.46875 C 4.453125 -23.46875 4.0625 -23.625 3.75 -23.9375 C 3.445312 -24.257812 3.296875 -24.660156 3.296875 -25.140625 C 3.296875 -25.660156 3.457031 -26.0625 3.78125 -26.34375 C 4.113281 -26.625 4.503906 -26.765625 4.953125 -26.765625 C 5.398438 -26.765625 5.785156 -26.625 6.109375 -26.34375 C 6.429688 -26.0625 6.59375 -25.660156 6.59375 -25.140625 C 6.59375 -24.660156 6.429688 -24.257812 6.109375 -23.9375 C 5.785156 -23.625 5.390625 -23.46875 4.921875 -23.46875 Z M 4.921875 -23.46875" transform="translate(132.939 40.871)"/></g></g></g><g><g><g><path d="M 11.953125 -2.15625 C 12.273438 -2.15625 12.535156 -2.054688 12.734375 -1.859375 C 12.941406 -1.660156 13.046875 -1.394531 13.046875 -1.0625 C 13.046875 -0.757812 12.941406 -0.503906 12.734375 -0.296875 C 12.535156 -0.0976562 12.273438 0 11.953125 0 L 11.125 0 C 9.832031 0 8.675781 -0.289062 7.65625 -0.875 C 6.644531 -1.46875 5.851562 -2.28125 5.28125 -3.3125 C 4.71875 -4.34375 4.4375 -5.507812 4.4375 -6.8125 L 4.4375 -16.765625 L 1.671875 -16.765625 C 1.378906 -16.765625 1.144531 -16.851562 0.96875 -17.03125 C 0.789062 -17.207031 0.703125 -17.4375 0.703125 -17.71875 C 0.703125 -18.007812 0.789062 -18.242188 0.96875 -18.421875 C 1.144531 -18.597656 1.378906 -18.6875 1.671875 -18.6875 L 4.4375 -18.6875 L 4.4375 -24.46875 C 4.4375 -24.789062 4.535156 -25.050781 4.734375 -25.25 C 4.929688 -25.457031 5.1875 -25.5625 5.5 -25.5625 C 5.820312 -25.5625 6.082031 -25.457031 6.28125 -25.25 C 6.488281 -25.050781 6.59375 -24.789062 6.59375 -24.46875 L 6.59375 -18.6875 L 11.28125 -18.6875 C 11.5625 -18.6875 11.789062 -18.597656 11.96875 -18.421875 C 12.144531 -18.242188 12.234375 -18.007812 12.234375 -17.71875 C 12.234375 -17.4375 12.144531 -17.207031 11.96875 -17.03125 C 11.789062 -16.851562 11.5625 -16.765625 11.28125 -16.765625 L 6.59375 -16.765625 L 6.59375 -6.8125 C 6.59375 -5.4375 7.015625 -4.316406 7.859375 -3.453125 C 8.710938 -2.585938 9.816406 -2.15625 11.171875 -2.15625 Z M 11.953125 -2.15625" transform="translate(142.865 40.871)"/></g></g></g><g><g><g><path d="M 12.046875 0.21875 C 10.179688 0.21875 8.492188 -0.210938 6.984375 -1.078125 C 5.472656 -1.941406 4.285156 -3.128906 3.421875 -4.640625 C 2.554688 -6.148438 2.125 -7.828125 2.125 -9.671875 C 2.125 -11.546875 2.554688 -13.238281 3.421875 -14.75 C 4.285156 -16.257812 5.472656 -17.445312 6.984375 -18.3125 C 8.492188 -19.175781 10.179688 -19.609375 12.046875 -19.609375 C 13.890625 -19.609375 15.566406 -19.175781 17.078125 -18.3125 C 18.597656 -17.445312 19.789062 -16.257812 20.65625 -14.75 C 21.519531 -13.238281 21.953125 -11.546875 21.953125 -9.671875 C 21.953125 -7.828125 21.519531 -6.148438 20.65625 -4.640625 C 19.789062 -3.128906 18.597656 -1.941406 17.078125 -1.078125 C 15.566406 -0.210938 13.890625 0.21875 12.046875 0.21875 Z M 12.046875 -1.765625 C 13.515625 -1.765625 14.835938 -2.109375 16.015625 -2.796875 C 17.203125 -3.484375 18.128906 -4.425781 18.796875 -5.625 C 19.472656 -6.832031 19.8125 -8.179688 19.8125 -9.671875 C 19.8125 -11.160156 19.472656 -12.507812 18.796875 -13.71875 C 18.128906 -14.925781 17.203125 -15.878906 16.015625 -16.578125 C 14.835938 -17.273438 13.515625 -17.625 12.046875 -17.625 C 10.585938 -17.625 9.265625 -17.273438 8.078125 -16.578125 C 6.898438 -15.878906 5.96875 -14.925781 5.28125 -13.71875 C 4.59375 -12.507812 4.25 -11.160156 4.25 -9.671875 C 4.25 -8.179688 4.59375 -6.832031 5.28125 -5.625 C 5.96875 -4.425781 6.898438 -3.484375 8.078125 -2.796875 C 9.265625 -2.109375 10.585938 -1.765625 12.046875 -1.765625 Z M 12.046875 -1.765625" transform="translate(157.153 40.871)"/></g></g></g><g><g><g><path d="M 7.09375 0 C 5.738281 0 4.628906 -0.539062 3.765625 -1.625 C 2.910156 -2.71875 2.484375 -4.125 2.484375 -5.84375 L 2.484375 -26.625 C 2.484375 -26.957031 2.582031 -27.21875 2.78125 -27.40625 C 2.976562 -27.59375 3.234375 -27.6875 3.546875 -27.6875 C 3.878906 -27.6875 4.140625 -27.59375 4.328125 -27.40625 C 4.515625 -27.21875 4.609375 -26.957031 4.609375 -26.625 L 4.609375 -5.84375 C 4.609375 -4.757812 4.835938 -3.867188 5.296875 -3.171875 C 5.753906 -2.472656 6.351562 -2.125 7.09375 -2.125 L 7.984375 -2.125 C 8.234375 -2.125 8.441406 -2.03125 8.609375 -1.84375 C 8.773438 -1.65625 8.859375 -1.394531 8.859375 -1.0625 C 8.859375 -0.757812 8.765625 -0.503906 8.578125 -0.296875 C 8.390625 -0.0976562 8.128906 0 7.796875 0 Z M 7.09375 0" transform="translate(181.225 40.871)"/></g></g></g><g><g><g><path d="M 12.046875 -19.609375 C 13.890625 -19.609375 15.566406 -19.175781 17.078125 -18.3125 C 18.597656 -17.445312 19.789062 -16.257812 20.65625 -14.75 C 21.519531 -13.238281 21.953125 -11.546875 21.953125 -9.671875 L 21.953125 -1.0625 C 21.953125 -0.757812 21.851562 -0.503906 21.65625 -0.296875 C 21.46875 -0.0976562 21.207031 0 20.875 0 C 20.570312 0 20.316406 -0.0976562 20.109375 -0.296875 C 19.910156 -0.503906 19.8125 -0.757812 19.8125 -1.0625 L 19.8125 -3.828125 C 19.03125 -2.578125 17.960938 -1.585938 16.609375 -0.859375 C 15.253906 -0.140625 13.734375 0.21875 12.046875 0.21875 C 10.179688 0.21875 8.492188 -0.210938 6.984375 -1.078125 C 5.472656 -1.941406 4.285156 -3.128906 3.421875 -4.640625 C 2.554688 -6.148438 2.125 -7.828125 2.125 -9.671875 C 2.125 -11.546875 2.554688 -13.238281 3.421875 -14.75 C 4.285156 -16.257812 5.472656 -17.445312 6.984375 -18.3125 C 8.492188 -19.175781 10.179688 -19.609375 12.046875 -19.609375 Z M 12.046875 -1.765625 C 13.515625 -1.765625 14.835938 -2.109375 16.015625 -2.796875 C 17.203125 -3.484375 18.128906 -4.425781 18.796875 -5.625 C 19.472656 -6.832031 19.8125 -8.179688 19.8125 -9.671875 C 19.8125 -11.160156 19.472656 -12.507812 18.796875 -13.71875 C 18.128906 -14.925781 17.203125 -15.878906 16.015625 -16.578125 C 14.835938 -17.273438 13.515625 -17.625 12.046875 -17.625 C 10.585938 -17.625 9.265625 -17.273438 8.078125 -16.578125 C 6.898438 -15.878906 5.96875 -14.925781 5.28125 -13.71875 C 4.59375 -12.507812 4.25 -11.160156 4.25 -9.671875 C 4.25 -8.179688 4.59375 -6.832031 5.28125 -5.625 C 5.96875 -4.425781 6.898438 -3.484375 8.078125 -2.796875 C 9.265625 -2.109375 10.585938 -1.765625 12.046875 -1.765625 Z M 12.046875 -1.765625" transform="translate(190.797 40.871)"/></g></g></g><g><g><g><path d="M 13.078125 -19.609375 C 14.953125 -19.609375 16.644531 -19.175781 18.15625 -18.3125 C 19.664062 -17.445312 20.851562 -16.257812 21.71875 -14.75 C 22.582031 -13.238281 23.015625 -11.5625 23.015625 -9.71875 C 23.015625 -7.84375 22.582031 -6.148438 21.71875 -4.640625 C 20.851562 -3.128906 19.664062 -1.941406 18.15625 -1.078125 C 16.644531 -0.210938 14.953125 0.21875 13.078125 0.21875 C 11.265625 0.21875 9.601562 -0.195312 8.09375 -1.03125 C 6.59375 -1.875 5.40625 -3.039062 4.53125 -4.53125 C 3.65625 -6.019531 3.207031 -7.675781 3.1875 -9.5 L 3.1875 -26.625 C 3.1875 -26.957031 3.285156 -27.21875 3.484375 -27.40625 C 3.691406 -27.59375 3.945312 -27.6875 4.25 -27.6875 C 4.582031 -27.6875 4.84375 -27.59375 5.03125 -27.40625 C 5.21875 -27.21875 5.3125 -26.957031 5.3125 -26.625 L 5.3125 -15.5625 C 6.09375 -16.8125 7.160156 -17.796875 8.515625 -18.515625 C 9.878906 -19.242188 11.398438 -19.609375 13.078125 -19.609375 Z M 13.078125 -1.765625 C 14.546875 -1.765625 15.867188 -2.113281 17.046875 -2.8125 C 18.234375 -3.507812 19.164062 -4.460938 19.84375 -5.671875 C 20.53125 -6.878906 20.875 -8.226562 20.875 -9.71875 C 20.875 -11.207031 20.53125 -12.550781 19.84375 -13.75 C 19.164062 -14.957031 18.234375 -15.90625 17.046875 -16.59375 C 15.867188 -17.28125 14.546875 -17.625 13.078125 -17.625 C 11.617188 -17.625 10.296875 -17.28125 9.109375 -16.59375 C 7.929688 -15.90625 7.003906 -14.957031 6.328125 -13.75 C 5.648438 -12.550781 5.3125 -11.207031 5.3125 -9.71875 C 5.3125 -8.226562 5.648438 -6.878906 6.328125 -5.671875 C 7.003906 -4.460938 7.929688 -3.507812 9.109375 -2.8125 C 10.296875 -2.113281 11.617188 -1.765625 13.078125 -1.765625 Z M 13.078125 -1.765625" transform="translate(214.869 40.871)"/></g></g></g><g><g><g><path d="M 9.78125 0.21875 C 8.414062 0.21875 7.082031 -0.0195312 5.78125 -0.5 C 4.476562 -0.988281 3.398438 -1.734375 2.546875 -2.734375 C 2.378906 -2.921875 2.296875 -3.132812 2.296875 -3.375 C 2.296875 -3.695312 2.453125 -3.96875 2.765625 -4.1875 C 2.910156 -4.300781 3.113281 -4.359375 3.375 -4.359375 C 3.695312 -4.359375 3.96875 -4.226562 4.1875 -3.96875 C 5.363281 -2.53125 7.265625 -1.8125 9.890625 -1.8125 C 11.753906 -1.8125 13.128906 -2.140625 14.015625 -2.796875 C 14.898438 -3.460938 15.34375 -4.316406 15.34375 -5.359375 C 15.34375 -7.222656 13.535156 -8.414062 9.921875 -8.9375 C 7.628906 -9.269531 5.898438 -9.894531 4.734375 -10.8125 C 3.566406 -11.738281 2.984375 -12.847656 2.984375 -14.140625 C 2.984375 -15.867188 3.613281 -17.210938 4.875 -18.171875 C 6.132812 -19.128906 7.785156 -19.609375 9.828125 -19.609375 C 12.796875 -19.609375 15.050781 -18.546875 16.59375 -16.421875 C 16.738281 -16.253906 16.8125 -16.050781 16.8125 -15.8125 C 16.8125 -15.476562 16.617188 -15.207031 16.234375 -15 C 16.003906 -14.90625 15.828125 -14.859375 15.703125 -14.859375 C 15.347656 -14.859375 15.050781 -15.007812 14.8125 -15.3125 C 13.613281 -16.851562 11.925781 -17.625 9.75 -17.625 C 8.3125 -17.625 7.164062 -17.304688 6.3125 -16.671875 C 5.457031 -16.046875 5.03125 -15.273438 5.03125 -14.359375 C 5.03125 -13.410156 5.4375 -12.648438 6.25 -12.078125 C 7.070312 -11.515625 8.441406 -11.09375 10.359375 -10.8125 C 12.859375 -10.457031 14.65625 -9.789062 15.75 -8.8125 C 16.851562 -7.832031 17.40625 -6.644531 17.40625 -5.25 C 17.40625 -4.15625 17.054688 -3.195312 16.359375 -2.375 C 15.660156 -1.550781 14.734375 -0.910156 13.578125 -0.453125 C 12.421875 -0.00390625 11.15625 0.21875 9.78125 0.21875 Z M 9.78125 0.21875" transform="translate(240.005 40.871)"/></g></g></g></svg>